<?xml version="1.0" encoding="utf-8"?>
<!-- Generator: Adobe Illustrator 23.1.0, SVG Export Plug-In . SVG Version: 6.00 Build 0)  -->
<svg version="1.1" id="Layer_1" xmlns="http://www.w3.org/2000/svg" xmlns:xlink="http://www.w3.org/1999/xlink" x="0px" y="0px"
	 viewBox="0 0 840 300" style="enable-background:new 0 0 840 300;" xml:space="preserve">
<style type="text/css">
	.st0{fill:#FFFFFF;stroke:#000000;stroke-width:2;stroke-miterlimit:10;}
	.st1{fill:#939089;stroke:#000000;stroke-width:2;stroke-miterlimit:10;}
	.st2{fill:#9A1B24;stroke:#000000;stroke-width:2;stroke-miterlimit:10;}
</style>
<g>
	<path class="st0" d="M829.39,299.94H9.43c-5.52,0-10-4.48-10-10V10.06c0-5.52,4.48-10,10-10h819.97c5.52,0,10,4.48,10,10v279.88
		C839.39,295.46,834.92,299.94,829.39,299.94z"/>
	<path class="st1" d="M829.39,299.94H444.96V0.06h384.43c5.52,0,10,4.48,10,10v279.88C839.39,295.46,834.92,299.94,829.39,299.94z"
		/>
	<path class="st1" d="M393.86,299.94H9.43c-5.52,0-10-4.48-10-10V10.06c0-5.52,4.48-10,10-10h384.43V299.94z"/>
	<path class="st2" d="M839.39,42.12H-0.57V10.06c0-5.52,4.48-10,10-10h819.97c5.52,0,10,4.48,10,10V42.12z"/>
	<path class="st2" d="M829.39,299.94H9.43c-5.52,0-10-4.48-10-10v-32.06h839.97v32.06C839.39,295.46,834.92,299.94,829.39,299.94z"
		/>
	<path class="st2" d="M40.05,6.47v287.07l-33.71,6.41c-3.75,0.59-7.35-3.39-6.9-6.94L-0.57,7.52c-0.36-4.14,2.44-8.05,6.19-7.46
		L40.05,6.47z"/>
	<path class="st2" d="M798.74,6.47v287.07l33.71,6.41c3.75,0.59,7.35-3.39,6.9-6.94l0.02-285.49c0.36-4.14-2.44-8.05-6.19-7.46
		L798.74,6.47z"/>
	<rect x="356.07" y="21.09" class="st2" width="125.8" height="257.82"/>
</g>
</svg>
