<?xml version="1.0" encoding="utf-8"?>
<!-- Generator: Adobe Illustrator 23.1.0, SVG Export Plug-In . SVG Version: 6.00 Build 0)  -->
<svg version="1.1" id="Layer_1" xmlns="http://www.w3.org/2000/svg" xmlns:xlink="http://www.w3.org/1999/xlink" x="0px" y="0px"
	 viewBox="0 0 840 300" style="enable-background:new 0 0 840 300;" xml:space="preserve">
<style type="text/css">
	.st0{fill:#FFFFFF;stroke:#000000;stroke-width:2;stroke-miterlimit:10;}
</style>
<rect x="19.39" y="20" class="st0" width="400" height="260"/>
<rect x="40.42" y="45.77" class="st0" width="118.16" height="163.3"/>
<g>
	<g>
		<path d="M180.84,49.14c0.56,3.86,3.74,7.44,7.61,8.2c4.17,0.82,8.49-1.29,10.5-5.03c1.54-2.86-2.52-5.17-4.32-2.52
			c-2.98,4.39-1.37,9.58-1.49,14.46c-0.03,1.02-0.14,2.06-0.54,3.02c-0.09,0.22-0.22,0.44-0.34,0.65c-0.19,0.33,0,0.05-0.14,0.21
			c-0.34,0.39-0.35,0.4-0.68,0.59c-0.18,0.11-0.37,0.22-0.56,0.31c0.31-0.13-0.12,0.03-0.24,0.06c-0.2,0.05-0.4,0.11-0.61,0.14
			c0.36-0.04-0.02-0.03-0.19-0.03c-0.34,0-0.56-0.13-0.7-0.34c-1.72-2.71-6.05-0.2-4.32,2.52c1.5,2.36,4.1,3.19,6.78,2.63
			c2.78-0.58,4.78-2.69,5.77-5.26c1.07-2.81,0.8-5.91,0.54-8.84c-0.22-2.57-0.47-5.35,1.04-7.58c-1.44-0.84-2.88-1.68-4.32-2.52
			c-1.04,1.94-3.21,3.14-5.14,2.67c-2.15-0.52-3.51-2.38-3.83-4.64c-0.19-1.34-1.89-2.07-3.08-1.75
			C181.15,46.46,180.65,47.8,180.84,49.14L180.84,49.14z"/>
	</g>
</g>
<g>
	<g>
		<path d="M207.78,60.72c-3.52,0.49-7.43,3.03-8.2,6.7c-0.91,4.34,2.9,8.03,7.14,7.89c2.12-0.07,4.14-0.96,5.84-2.18
			c1.77-1.27,3.53-2.7,4.36-4.77c0.77-1.94,0.41-4.28-1.11-5.77c-1.61-1.58-4.18-1.53-5.83-0.04c-2.91,2.64-2.8,7.81-2.46,11.39
			c0.42,4.5,1.84,8.55,4,12.49c0.72,1.32,1.88,3.17,0.74,4.59c-0.88,1.09-2.43,1.55-3.78,1.55c-3.2-0.01-5.65-2.5-5.98-5.62
			c-0.39-3.6,2.02-6.11,4.9-7.75c3.28-1.86,6.93-2.95,10.26-4.7c2.85-1.5,0.33-5.81-2.52-4.32c-5.35,2.81-11.83,4.11-15.54,9.29
			c-4.39,6.14-1.59,15.42,5.75,17.64c3.49,1.05,7.67,0.27,10.27-2.38c1.38-1.41,2.2-3.31,2.13-5.3c-0.07-2.14-1.1-4.07-2.11-5.9
			c-1.79-3.24-2.95-6.74-3.18-10.45c-0.11-1.75-0.13-3.63,0.25-5.35c0.06-0.28,0.61-1.33,0.6-1.46c-0.03-0.51,0.17,0.07,0.05-0.03
			c0.05,0.04-0.68,0.08-0.7,0.08c0.12,0-0.48-0.13-0.35-0.19c0,0,0.03,0.3,0.01,0.36c-0.12,0.4-0.48,0.76-0.77,1.05
			c-0.67,0.65-1.4,1.24-2.2,1.74c-1.22,0.77-2.97,1.57-4.3,0.59c-0.87-0.65-0.76-1.47-0.2-2.22c0.98-1.3,2.69-1.9,4.24-2.11
			c1.34-0.18,2.07-1.9,1.75-3.08C210.46,61.02,209.13,60.53,207.78,60.72L207.78,60.72z"/>
	</g>
</g>
<g>
	<g>
		<path d="M221.1,60.92c-1.52,2.14-2.9,4.42-3.05,7.12c-0.14,2.44,1.01,5.27,3.27,6.44c2.49,1.28,5.44,0.47,7.18-1.66
			c0.81-0.98,1.43-2.12,1.63-3.39c0.25-1.57-0.01-3.03-0.66-4.47c-1.15-2.54-3.6-4.29-6.17-5.19c-1.04-0.36-2.28,0.24-2.82,1.15
			c-1.92,3.22-1.4,7.54,1.19,10.24c0.91,0.95,2.64,0.98,3.54,0c0.93-1.02,0.97-2.53,0-3.54c-0.08-0.08-0.19-0.27-0.29-0.32
			c0.24,0.32,0.28,0.38,0.13,0.17c-0.03-0.04-0.05-0.08-0.08-0.12c-0.14-0.21-0.25-0.59-0.42-0.75c0.15,0.38,0.18,0.45,0.08,0.2
			c-0.02-0.05-0.03-0.09-0.05-0.14c-0.05-0.14-0.09-0.27-0.13-0.41c-0.04-0.14-0.07-0.28-0.1-0.42c-0.02-0.09-0.04-0.19-0.05-0.29
			c0.05,0.4,0.06,0.5,0.04,0.3c-0.02-0.29-0.04-0.58-0.03-0.87c0.01-0.15,0.02-0.29,0.03-0.43c0.02-0.26-0.12,0.66,0,0.09
			c0.06-0.29,0.15-0.55,0.23-0.83c0.07-0.24-0.27,0.57-0.03,0.07c0.07-0.15,0.16-0.3,0.24-0.44c-0.94,0.38-1.88,0.77-2.82,1.15
			c0.09,0.03,0.18,0.07,0.27,0.1c0.39,0.13-0.15-0.06-0.19-0.09c0.17,0.1,0.36,0.16,0.53,0.26c0.4,0.21,0.75,0.51,1.14,0.71
			c-0.04-0.02-0.46-0.39-0.15-0.12c0.07,0.07,0.15,0.13,0.23,0.19c0.15,0.13,0.29,0.27,0.43,0.41c0.13,0.14,0.25,0.32,0.39,0.44
			c-0.04-0.03-0.35-0.5-0.12-0.16c0.07,0.1,0.14,0.2,0.2,0.3c0.1,0.16,0.2,0.33,0.29,0.51c0.27,0.53-0.17-0.49,0.04,0.07
			c0.07,0.21,0.14,0.42,0.19,0.63c0.02,0.09,0.03,0.21,0.06,0.29c-0.06-0.17-0.06-0.58-0.03-0.15c0.01,0.19,0,0.37-0.01,0.56
			c-0.01,0.32,0.11-0.56,0.03-0.25c-0.02,0.09-0.04,0.18-0.06,0.27c-0.03,0.12-0.27,0.68-0.07,0.3c0.21-0.39-0.12,0.23-0.18,0.33
			c-0.09,0.16-0.23,0.3-0.31,0.47c0.22-0.44,0.28-0.34,0.13-0.18c-0.06,0.07-0.12,0.14-0.19,0.2c-0.06,0.06-0.14,0.12-0.2,0.19
			c-0.27,0.27,0.14-0.11,0.19-0.14c-0.19,0.08-0.38,0.24-0.56,0.35c-0.2,0.12-0.26-0.01,0.24-0.09c-0.08,0.01-0.17,0.06-0.24,0.08
			c-0.08,0.02-0.16,0.04-0.25,0.06c-0.24,0.07-0.2-0.11,0.29-0.03c-0.12-0.02-0.4,0.08-0.5,0c-0.02-0.02,0.69,0.17,0.29,0.03
			c-0.1-0.04-0.45-0.19-0.08,0c0.42,0.22-0.15-0.11-0.23-0.15c-0.27-0.13,0.4,0.37,0.19,0.16c-0.06-0.06-0.13-0.11-0.19-0.18
			c-0.06-0.06-0.11-0.13-0.18-0.19c-0.22-0.2,0.3,0.46,0.15,0.2c-0.1-0.17-0.21-0.34-0.31-0.51c-0.2-0.33,0.08,0.18,0.09,0.23
			c-0.02-0.08-0.07-0.17-0.09-0.26c-0.06-0.17-0.11-0.35-0.15-0.53c-0.02-0.07-0.02-0.2-0.05-0.27c0.2,0.47,0.05,0.48,0.03,0.18
			c-0.02-0.21-0.02-0.42-0.02-0.63c0-0.09,0.01-0.19,0.02-0.28c0.01-0.5-0.13,0.6-0.02,0.12c0.06-0.25,0.11-0.5,0.18-0.75
			c0.05-0.16,0.12-0.62,0.25-0.73c-0.18,0.15-0.18,0.4-0.05,0.13c0.07-0.15,0.15-0.31,0.23-0.46c0.5-0.97,1.14-1.87,1.77-2.76
			c0.76-1.07,0.23-2.83-0.9-3.42C223.23,59.35,221.91,59.78,221.1,60.92L221.1,60.92z"/>
	</g>
</g>
<g>
	<g>
		<path d="M241.18,60.11c-2.47-1.7-5.72-1.74-8.42-0.6c-3,1.26-4.97,3.96-5.34,7.17c-0.34,2.87,0.82,5.95,2.87,7.97
			c2.22,2.19,5.54,3.03,8.5,1.98c1.62-0.57,3.14-1.53,4.24-2.86c1.27-1.53,1.96-3.21,2.2-5.18c0.15-1.3-1.26-2.56-2.5-2.5
			c-1.49,0.07-2.33,1.1-2.5,2.5c0.09-0.78-0.05,0.14-0.1,0.31c-0.03,0.11-0.06,0.21-0.1,0.31c-0.02,0.05-0.21,0.56-0.05,0.16
			c0.14-0.37-0.17,0.32-0.24,0.43c-0.05,0.09-0.11,0.19-0.17,0.28c-0.06,0.09-0.12,0.18-0.18,0.27c-0.13,0.17-0.13,0.18,0,0.01
			c0.29-0.18-0.04,0.03-0.12,0.12c-0.07,0.08-0.15,0.16-0.22,0.24c-0.08,0.08-0.54,0.58-0.6,0.55c-0.01-0.01,0.52-0.36,0.12-0.1
			c-0.09,0.06-0.18,0.12-0.27,0.18c-0.25,0.16-0.51,0.29-0.77,0.43c-0.45,0.24,0.04-0.09,0.08-0.03c0,0-0.26,0.09-0.3,0.11
			c-0.25,0.08-0.51,0.14-0.77,0.2c-0.28,0.07-0.13-0.11,0.2-0.02c-0.1-0.03-0.29,0.03-0.39,0.03c-0.14,0.01-0.77-0.09-0.87-0.02
			c0.05-0.03,0.62,0.13,0.19,0.02c-0.1-0.03-0.21-0.04-0.31-0.07c-0.15-0.04-0.3-0.09-0.45-0.14c-0.3-0.09,0.04-0.12,0.17,0.08
			c-0.08-0.12-0.49-0.25-0.61-0.32c-0.11-0.07-0.21-0.14-0.32-0.21c-0.44-0.28,0.41,0.38,0.02,0.01c-0.17-0.16-0.34-0.31-0.5-0.48
			c-0.09-0.09-0.17-0.19-0.26-0.29c-0.24-0.26,0.14,0.03,0.1,0.14c0-0.01-0.81-1.36-0.8-1.36c0.11,0.01,0.2,0.55,0.04,0.08
			c-0.04-0.13-0.09-0.25-0.13-0.38c-0.06-0.2-0.12-0.41-0.17-0.61c-0.03-0.13-0.04-0.27-0.08-0.39c-0.1-0.33,0.05,0.65,0.02,0.11
			c-0.01-0.26-0.04-0.53-0.03-0.79c0-0.13,0.01-0.26,0.02-0.39c0.01-0.4,0.17-0.12-0.03,0.12c0.11-0.13,0.11-0.53,0.15-0.69
			c0.04-0.13,0.08-0.25,0.12-0.38c0.1-0.33,0.08,0.1-0.08,0.15c0.1-0.04,0.34-0.65,0.4-0.75c0.03-0.05,0.23-0.28,0.22-0.32
			c0.01,0.04-0.4,0.47-0.11,0.14c0.16-0.17,0.31-0.34,0.47-0.5c0.09-0.09,0.19-0.17,0.28-0.25c0.32-0.29-0.11,0.11-0.15,0.11
			c0.11,0.01,0.6-0.39,0.71-0.45c0.11-0.06,0.23-0.11,0.34-0.18c0.47-0.26-0.54,0.19-0.04,0.01c0.24-0.08,0.48-0.17,0.72-0.23
			c0.12-0.03,0.25-0.06,0.37-0.09c0.07-0.02,0.15-0.03,0.22-0.04c0.27-0.04,0.2-0.03-0.22,0.03c0.21,0.05,0.53-0.04,0.75-0.04
			c0.1,0,0.2,0,0.3,0.01c0.09,0,0.74,0.03,0.26,0.02c-0.44-0.02,0.02,0.01,0.11,0.03c0.15,0.03,0.29,0.07,0.43,0.11
			c0.1,0.03,0.19,0.07,0.28,0.09c0.5,0.15-0.5-0.27-0.04-0.02c0.27,0.15,0.53,0.29,0.79,0.46c1.08,0.74,2.82,0.24,3.42-0.9
			C242.75,62.26,242.34,60.9,241.18,60.11L241.18,60.11z"/>
	</g>
</g>
<g>
	<g>
		<path d="M242.93,61.9c1.33,4.16,1.94,8.42,1.82,12.79c-0.07,2.61,3.35,3.23,4.66,1.26c0.98-1.47,1.96-2.94,2.95-4.41
			c0.49-0.73,0.98-1.47,1.47-2.2c0.34-0.51,0.65-1.19,1.15-1.58c0.01-0.01,0.17-0.08,0.17-0.08c0.43,0.14,0.75,0.55,0.93,0.94
			c0.54,1.19,0.4,2.67,0.37,3.93c-0.07,2.8,4.25,3.42,4.91,0.66c0.48-1.99,1.02-4.71,2.68-5.92c0.54-0.39,0.93-0.42,1.56-0.09
			c0.02,0.01,0.59,0.42,0.38,0.23c0.06,0.05,0.58,0.52,0.27,0.29c0.39,0.3-0.14,0.04,0.05-0.01c0-0.17,0-0.12,0.01,0.15
			c-0.01-0.1,0.02-0.19,0.09-0.25c-0.52,1.24-0.37,2.68,0.9,3.42c1.05,0.61,2.89,0.35,3.42-0.9c0.91-2.16,0.66-4.31-1.01-6.05
			c-1.48-1.54-3.73-2.3-5.83-2c-4.62,0.66-6.4,5.9-7.33,9.8c1.64,0.22,3.27,0.44,4.91,0.66c0.06-2.28,0-4.73-1.21-6.74
			c-1.16-1.92-3.34-3.3-5.62-3.09c-2.57,0.24-3.9,2.32-5.22,4.28c-1.43,2.14-2.87,4.28-4.3,6.43c1.55,0.42,3.11,0.84,4.66,1.26
			c0.12-4.78-0.55-9.57-2-14.12C246.78,57.52,241.95,58.83,242.93,61.9L242.93,61.9z"/>
	</g>
</g>
<g>
	<g>
		<path d="M278.87,61.59c-3.37,1.18-4.77,4.73-4.14,8.08c0.63,3.36,3.97,5.6,7.31,5.22c3.72-0.42,6.78-3.14,7.33-6.92
			c0.28-1.89,0.15-3.83-0.58-5.61c-0.73-1.8-1.87-3.76-3.73-4.59c-4.42-1.97-8.03,2.22-9.61,5.91c-0.28,0.64-0.45,1.22-0.25,1.93
			c0.16,0.58,0.61,1.21,1.15,1.49c1.07,0.57,2.87,0.39,3.42-0.9c0.24-0.57,0.51-1.12,0.83-1.65c0.15-0.25,0.3-0.49,0.46-0.73
			c0.07-0.11,0.19-0.35,0.3-0.42c-0.22,0.28-0.25,0.31-0.08,0.1c0.05-0.06,0.11-0.13,0.16-0.19c0.2-0.23,0.4-0.44,0.62-0.65
			c-0.02,0.01,0.24-0.2,0.24-0.21c-0.09,0.07-0.18,0.13-0.26,0.2c0.08-0.06,0.16-0.12,0.25-0.17c0.12-0.08,0.25-0.15,0.38-0.22
			c0.33-0.21-0.15,0.08-0.21,0.08c0.09,0,0.3-0.09,0.39-0.12c0.44-0.14-0.64,0-0.06,0.02c0.36,0.01,0.13,0.13-0.19-0.05
			c0.04,0.02,0.38,0.12,0.41,0.11c-0.22,0.07-0.49-0.25-0.11-0.03c0.03,0.01,0.05,0.03,0.08,0.04c0.22,0.15,0.2,0.13-0.09-0.08
			c0.09,0,0.32,0.31,0.38,0.37c0.04,0.04,0.35,0.49,0.14,0.16c-0.21-0.34,0.08,0.14,0.1,0.17c0.12,0.19,0.24,0.39,0.35,0.59
			c0.05,0.1,0.11,0.2,0.16,0.3c0.02,0.05,0.05,0.1,0.07,0.15c0.11,0.25,0.1,0.21-0.05-0.12c0.15,0.12,0.22,0.62,0.27,0.82
			c0.09,0.31,0.14,0.61,0.21,0.92c0.08,0.36-0.04-0.64-0.01-0.07c0.01,0.23,0.03,0.45,0.03,0.68c0,0.11,0.01,0.84-0.04,0.85
			c0.02-0.11,0.03-0.22,0.05-0.33c-0.02,0.11-0.04,0.22-0.06,0.33c-0.02,0.11-0.05,0.22-0.07,0.33c-0.04,0.16-0.09,0.32-0.14,0.48
			c-0.02,0.05-0.04,0.11-0.06,0.16c-0.1,0.25-0.08,0.21,0.06-0.13c0.06,0.15-0.4,0.73-0.48,0.86c-0.25,0.43,0.32-0.31,0.08-0.1
			c-0.09,0.08-0.16,0.19-0.24,0.27c-0.16,0.17-0.39,0.31-0.54,0.49c0.34-0.43,0.27-0.21,0.03-0.05c-0.12,0.08-0.25,0.15-0.38,0.22
			c-0.09,0.05-0.17,0.09-0.26,0.13c-0.24,0.11-0.17,0.08,0.2-0.08c-0.09,0.03-0.18,0.07-0.27,0.1c-0.23,0.08-0.46,0.12-0.69,0.18
			c-0.51,0.13,0.62-0.03,0.1-0.01c-0.12,0.01-0.23,0.02-0.35,0.02c-0.12,0-0.23,0-0.35,0c-0.32-0.02-0.41-0.18,0.11,0.03
			c-0.24-0.1-0.55-0.13-0.81-0.21c-0.48-0.15,0.51,0.29,0.09,0.03c-0.08-0.05-0.17-0.09-0.25-0.14c-0.27-0.16-0.26-0.34,0.04,0.06
			c-0.06-0.08-0.17-0.15-0.25-0.22c-0.07-0.07-0.14-0.15-0.21-0.23c-0.32-0.34,0.33,0.52,0.09,0.11c-0.05-0.09-0.11-0.18-0.16-0.27
			c-0.13-0.24-0.14-0.57,0.02,0.09c-0.06-0.24-0.16-0.48-0.22-0.72c-0.05-0.24,0.01-0.55,0.01,0.16c0-0.13-0.02-0.25-0.03-0.38
			c0-0.13-0.01-0.25,0-0.38c0.01-0.26,0.17-0.73-0.03,0.03c0.06-0.24,0.09-0.49,0.17-0.74c0.02-0.08,0.05-0.16,0.08-0.24
			c0.13-0.4-0.3,0.6,0,0.04c0.06-0.11,0.12-0.21,0.18-0.31c0.14-0.22,0.37-0.27-0.11,0.12c0.09-0.07,0.16-0.18,0.24-0.26
			c0.21-0.2,0.36-0.17-0.14,0.09c0.1-0.05,0.2-0.13,0.3-0.19c0.56-0.31-0.45,0.15-0.04,0.01c1.23-0.43,2.18-1.73,1.75-3.08
			C281.55,62.11,280.19,61.12,278.87,61.59L278.87,61.59z"/>
	</g>
</g>
<g>
	<g>
		<path d="M291.64,68.35c3.85-2.41,7.14-5.49,9.86-9.12c2.35-3.13,4.95-7.1,4.77-11.18c-0.08-1.9-0.74-3.94-2.45-4.98
			c-2.09-1.27-4.55-0.6-6.27,0.97c-3.22,2.94-5.13,7.72-6.34,11.81c-1.3,4.41-1.87,9.02-2.29,13.59c-0.39,4.25-1.13,9.03,0.48,13.12
			c0.82,2.08,2.41,4.67,4.9,4.82c2.73,0.17,4.12-2.32,5.3-4.39c2.39-4.19,4.11-8.84,4.93-13.59c0.75-4.36,0.65-10.58-4.14-12.64
			c-3.78-1.63-9.34,0.66-9.01,5.33c0.09,1.35,1.08,2.5,2.5,2.5c1.28,0,2.59-1.15,2.5-2.5c-0.01-0.21-0.15-0.64-0.02-0.34
			c-0.08-0.19,0.16-0.25-0.1,0.07c0.29-0.35,0.46-0.42,0.64-0.47c0.61-0.2,0.49-0.19,1.14-0.13c0.31,0.03,0.03,0.01-0.02,0
			c0.12,0.03,0.27,0.05,0.38,0.1c-0.01-0.01,0.26,0.16,0.14,0.04c2,1.95,1.47,5.3,0.97,7.78c-0.7,3.48-1.86,6.86-3.5,10
			c-0.4,0.77-0.82,1.52-1.27,2.25c-0.16,0.27-0.62,0.75-0.66,1.05c0.09-0.59-0.1,0.25-0.12,0.15c-0.05-0.19,1.24-0.08,1.23-0.02
			c0.03-0.11-0.97-1.38-1.06-1.61c-0.27-0.65-0.44-1.39-0.54-2.08c-0.47-3.14,0.06-6.51,0.36-9.65c0.32-3.4,0.76-6.78,1.57-10.1
			c0.77-3.17,1.88-6.22,3.61-9c0.37-0.6,0.76-1.2,1.2-1.75c0.08-0.1,1.2-1.08,1.2-1.02c-0.01,0.13-0.35-0.1-0.39-0.1
			c0.02,0,0.01,0.05,0.02,0.1c0.12,0.3-0.01,0-0.01-0.01c0.01,0.13,0.08,0.25,0.1,0.39c0.01,0.07,0.04,0.27,0.04,0.61
			c0,1.45-0.5,2.49-1.21,3.83c-0.85,1.61-1.82,3.16-2.93,4.6c-2.22,2.87-4.95,5.34-8.02,7.26C286.39,65.74,288.9,70.07,291.64,68.35
			L291.64,68.35z"/>
	</g>
</g>
<g>
	<g>
		<path d="M309.9,76.88c3.83-1.13,7.87-3.14,9.16-7.23c1.11-3.53-0.38-8.29-4.34-9.17c-4.27-0.95-7.37,2.78-8.6,6.43
			c-1.27,3.76-0.78,8.6,1.82,11.69c2.77,3.29,8.81,3.47,10.94-0.65c0.6-1.16,0.34-2.77-0.9-3.42c-1.15-0.61-2.78-0.34-3.42,0.9
			c-0.02,0.04-0.21,0.44-0.26,0.44c-0.05-0.01,0.45-0.45,0.08-0.13c0.02-0.02-0.23,0.22-0.23,0.22c-0.03-0.03,0.5-0.32-0.02-0.03
			c-0.03,0.02-0.29,0.14-0.29,0.14c-0.03-0.16,0.57-0.15,0.07-0.06c-0.04,0.01-0.4,0.09-0.4,0.09c0.01-0.07,0.65-0.04,0.01-0.02
			c-0.11,0-0.22,0-0.33,0c-0.61-0.03,0,0.01-0.01,0.01c-0.01,0.03-0.58-0.15-0.66-0.17c-0.54-0.13,0.45,0.27-0.03-0.01
			c-0.1-0.06-0.2-0.1-0.3-0.16c-0.04-0.02-0.51-0.32-0.17-0.09c0.32,0.21-0.14-0.14-0.21-0.21c-0.12-0.12-0.24-0.26-0.35-0.39
			c0.31,0.36,0.07,0.09,0.02,0c-0.17-0.31-0.35-0.6-0.51-0.92c0.21,0.42,0.05,0.12,0.01,0.01c-0.06-0.2-0.14-0.4-0.2-0.61
			c-0.1-0.35-0.17-0.7-0.23-1.06c-0.13-0.68,0,0.32-0.01-0.1c-0.01-0.18-0.03-0.37-0.04-0.55c-0.02-0.37-0.02-0.73-0.02-1.1
			c0.01-0.29,0.04-0.58,0.05-0.87c0.02-0.64-0.12,0.53,0.01-0.1c0.04-0.19,0.07-0.39,0.12-0.58c0.07-0.29,0.15-0.58,0.24-0.86
			c0.06-0.17,0.39-0.94,0.14-0.43c0.14-0.3,0.28-0.6,0.45-0.88c0.06-0.11,0.13-0.22,0.2-0.33c0.04-0.06,0.47-0.66,0.24-0.37
			c-0.24,0.31,0.14-0.16,0.16-0.18c0.08-0.09,0.17-0.18,0.25-0.26c0.09-0.08,0.28-0.33,0.39-0.36c-0.02,0.01-0.5,0.32-0.09,0.08
			c0.1-0.06,0.19-0.12,0.29-0.17c0.53-0.29,0.01,0.01,0-0.02c0,0,0.33-0.1,0.31-0.09c0.47-0.17-0.5-0.02-0.03,0
			c0.05,0,0.11,0,0.16,0c0.22,0.01,0.22,0.01,0-0.02c-0.06-0.01-0.11-0.02-0.17-0.03c0.11,0.02,0.22,0.04,0.34,0.08
			c0.02,0.01,0.31,0.07,0.34,0.11c-0.1-0.04-0.2-0.08-0.3-0.12c0.1,0.05,0.19,0.1,0.28,0.16c0.34,0.18-0.19-0.02-0.12-0.1
			c0.01-0.01,0.2,0.2,0.23,0.22c0.4,0.34-0.25-0.46,0.01,0c0.08,0.14,0.16,0.28,0.24,0.42c0.24,0.42-0.08-0.14-0.05-0.14
			c0.03,0,0.12,0.35,0.13,0.4c0.04,0.14,0.06,0.28,0.1,0.41c0.12,0.49-0.03-0.16-0.01-0.15c0.09,0.06,0.03,0.74,0.03,0.87
			c0,0,0,0.33-0.02,0.35c0.06-0.37,0.06-0.42,0.01-0.14c-0.02,0.09-0.03,0.17-0.05,0.26c-0.03,0.14-0.07,0.28-0.11,0.42
			c-0.03,0.08-0.05,0.17-0.08,0.25c-0.07,0.18-0.04,0.11,0.09-0.2c0.04,0.21-0.42,0.73-0.51,0.87c-0.21,0.34,0.38-0.39-0.08,0.09
			c-0.15,0.16-0.29,0.31-0.45,0.46c-0.1,0.1-0.21,0.19-0.32,0.29c-0.22,0.18-0.22,0.18,0,0.01c-0.09,0.06-0.17,0.13-0.26,0.19
			c-0.33,0.22-0.66,0.43-1.01,0.61c-0.13,0.07-0.26,0.13-0.39,0.2c-0.07,0.03-0.76,0.35-0.49,0.23c0.34-0.14-0.32,0.12-0.31,0.12
			c-0.2,0.08-0.41,0.15-0.62,0.22c-0.41,0.14-0.82,0.27-1.24,0.39c-1.25,0.37-2.17,1.77-1.75,3.08
			C307.23,76.4,308.56,77.27,309.9,76.88L309.9,76.88z"/>
	</g>
</g>
<g>
	<g>
		<path d="M317.83,66.55c1.4,9.35,2.36,18.75,2.92,28.19c1.64-0.22,3.27-0.44,4.91-0.66c-1.82-8.17-2.31-16.59-1.47-24.93
			c0.08-0.8,0.14-1.61,0.33-2.39c0.05-0.2,0.09-0.65,0.27-0.79c-0.03,0.02-0.21,0.1-0.17,0.1c0.94-0.12,1.94,1.31,2.24,2.01
			c1.04,2.47-1.04,4.82-3.56,4.55c-1.34-0.14-2.5,1.25-2.5,2.5c0,1.47,1.15,2.36,2.5,2.5c3.76,0.4,7.33-2.28,8.48-5.79
			c1.18-3.61-0.58-7.81-3.78-9.75c-1.8-1.09-4.21-1.46-6.03-0.24c-1.59,1.06-2.22,2.94-2.47,4.75c-0.63,4.47-0.81,9.01-0.65,13.52
			c0.19,5.14,0.87,10.28,1.99,15.3c0.61,2.72,5.08,2.17,4.91-0.66c-0.58-9.88-1.63-19.73-3.1-29.52c-0.2-1.34-1.89-2.07-3.08-1.75
			C318.15,63.86,317.63,65.21,317.83,66.55L317.83,66.55z"/>
	</g>
</g>
<g>
	<g>
		<path d="M336.52,72.15c2.97-1.64,6.18-4.7,5.37-8.44c-0.39-1.78-1.74-3.2-3.46-3.73c-1.57-0.49-3.27-0.12-4.71,0.58
			c-2.92,1.42-4.37,4.78-4.18,7.91c0.19,3.24,1.84,6.51,4.83,8.02c3.49,1.77,7.83,1.2,10.66-1.54c0.94-0.91,0.98-2.63,0-3.54
			c-1.01-0.93-2.53-0.97-3.54,0c-0.11,0.1-0.22,0.2-0.32,0.3c-0.38,0.36,0.49-0.32,0.05-0.03c-0.2,0.13-0.4,0.27-0.61,0.38
			c-0.11,0.06-0.3,0.11-0.39,0.19c0.11-0.05,0.22-0.09,0.33-0.14c-0.09,0.04-0.18,0.07-0.27,0.1c-0.27,0.1-0.55,0.18-0.83,0.24
			c-0.13,0.03-0.3,0.03-0.42,0.08c0.04-0.02,0.65-0.06,0.24-0.04c-0.29,0.01-0.57,0.04-0.86,0.03c-0.1,0-0.19-0.01-0.29-0.02
			c-0.29-0.02-0.46-0.19,0.09,0.02c-0.26-0.1-0.57-0.11-0.84-0.19c-0.14-0.04-0.27-0.09-0.41-0.14c-0.5-0.16,0.54,0.27,0.07,0.03
			c-0.22-0.11-0.43-0.22-0.63-0.35c-0.1-0.07-0.25-0.21-0.36-0.25c0.38,0.12,0.35,0.28,0.11,0.08c-0.23-0.2-0.43-0.42-0.64-0.65
			c-0.34-0.36,0.27,0.4,0.09,0.12c-0.07-0.1-0.14-0.19-0.2-0.29c-0.15-0.24-0.29-0.48-0.42-0.74c-0.04-0.08-0.08-0.17-0.12-0.26
			c0.34,0.63,0.11,0.26,0.04,0.07c-0.1-0.27-0.18-0.54-0.24-0.82c-0.03-0.14-0.06-0.28-0.09-0.42c-0.11-0.52,0.06,0.63,0.01,0.1
			c-0.02-0.24-0.04-0.48-0.04-0.72c0-0.26,0.01-0.52,0.03-0.79c0.03-0.27,0.17-0.35-0.03,0.17c0.06-0.17,0.07-0.38,0.11-0.56
			c0.06-0.23,0.12-0.46,0.2-0.68c0.02-0.04,0.03-0.09,0.05-0.13c0.1-0.24,0.07-0.18-0.09,0.2c0.07-0.08,0.11-0.23,0.16-0.32
			c0.05-0.09,0.1-0.19,0.16-0.28c0.13-0.21,0.37-0.34-0.1,0.1c0.18-0.17,0.33-0.38,0.52-0.55c0.19-0.17,0.44-0.21-0.11,0.07
			c0.11-0.06,0.21-0.15,0.31-0.21c0.18-0.11,0.38-0.18,0.55-0.3c-0.5,0.35-0.4,0.16-0.14,0.07c0.08-0.03,0.15-0.05,0.23-0.07
			c0.12-0.03,0.23-0.06,0.35-0.09c0.42-0.11-0.72,0.05-0.08,0.01c0.19-0.01,0.38,0.01,0.57,0.01c-0.72-0.01-0.48-0.08-0.23-0.01
			c0.1,0.03,0.44,0.17,0.01-0.02c-0.44-0.19-0.09-0.04-0.01,0.01c0.27,0.15,0.2,0.29-0.15-0.14c0.05,0.06,0.18,0.2,0.24,0.24
			c-0.15-0.08-0.36-0.53-0.12-0.13c0.02,0.04,0.04,0.07,0.06,0.11c0.12,0.24,0.09,0.18-0.07-0.2c-0.01,0.03,0.13,0.75,0.09,0.2
			c-0.04-0.47-0.01-0.02-0.01,0.07c0,0.09-0.01,0.18-0.01,0.27c0.07-0.44,0.08-0.53,0.02-0.27c-0.03,0.08-0.05,0.18-0.07,0.26
			c-0.09,0.25-0.05,0.18,0.1-0.21c-0.04,0.09-0.08,0.17-0.12,0.25c-0.14,0.26-0.32,0.49-0.47,0.74c0.36-0.57,0.13-0.17,0-0.03
			c-0.14,0.16-0.29,0.31-0.44,0.45c-0.07,0.07-0.68,0.66-0.72,0.63c0.08-0.06,0.17-0.13,0.25-0.19c-0.09,0.06-0.17,0.13-0.26,0.19
			c-0.13,0.09-0.26,0.18-0.39,0.27c-0.3,0.2-0.61,0.38-0.92,0.55c-1.15,0.63-1.62,2.3-0.9,3.42
			C333.85,72.42,335.3,72.83,336.52,72.15L336.52,72.15z"/>
	</g>
</g>
<g>
	<g>
		<path d="M345.08,62.2c0.41,4.64,0.82,9.28,1.24,13.92c1.42-0.59,2.85-1.18,4.27-1.77c-0.38-0.3,0.08,0.37-0.1-0.06
			c0.02,0.05,0.25,0.5,0.15,0.54c-0.15,0.06,0.22-0.92-0.02-0.12c0.14-0.46-0.09,0.21,0-0.08c0.06-0.21,0.24-0.38,0-0.1
			c0.05-0.06,0.46-0.41,0.19-0.22c-0.34,0.24,0.36-0.16,0.07-0.03c0.25-0.11,0.54-0.16,0.8-0.22c0.3-0.06,0.51-0.06,1.02-0.1
			c0.45-0.03,0.91-0.06,1.36-0.11c1.11-0.13,2.14-0.37,3.15-0.88c2.1-1.08,3.28-3.33,2.85-5.66c-0.38-2.08-2.06-3.89-3.94-4.75
			c-1.66-0.76-3.77,0.12-3.76,2.16c0.03,5.24,0.87,10.48,2.51,15.46c0.42,1.28,1.73,2.12,3.08,1.75c1.25-0.34,2.17-1.79,1.75-3.08
			c-1.52-4.61-2.3-9.29-2.33-14.13c-1.25,0.72-2.51,1.44-3.76,2.16c0.19,0.09,0.37,0.17,0.55,0.28c0.1,0.06,0.48,0.31,0.22,0.12
			c0.17,0.13,0.31,0.29,0.46,0.44c0.16,0.16-0.05-0.15,0.15,0.19c0.01,0.01,0.39,0.7,0.16,0.28c0.11,0.2,0.15,0.21,0.03,0.03
			c-0.01,0.27-0.01,0.31,0.01,0.14c0.02-0.18,0-0.13-0.06,0.14c0.02-0.06,0.04-0.12,0.06-0.18c-0.04,0.06-0.08,0.13-0.12,0.19
			c0.14-0.19,0.16-0.21,0.03-0.09c-0.13,0.12-0.1,0.11,0.08-0.04c-0.12,0.09-0.26,0.15-0.39,0.23c-0.49,0.3,0.31-0.04-0.26,0.1
			c-0.15,0.04-0.3,0.09-0.45,0.12c-0.07,0.02-0.79,0.11-0.24,0.06c-0.19,0.02-0.38,0.03-0.56,0.05c-0.52,0.04-1.04,0.06-1.56,0.12
			c-2.19,0.25-4.32,0.99-5.41,3.06c-0.96,1.81-0.97,4.39,0.75,5.77c0.8,0.64,1.73,0.96,2.73,0.52c0.84-0.37,1.62-1.29,1.54-2.28
			c-0.41-4.64-0.82-9.28-1.24-13.92c-0.12-1.34-1.06-2.5-2.5-2.5C346.32,59.7,344.96,60.84,345.08,62.2L345.08,62.2z"/>
	</g>
</g>
<g>
	<g>
		<path d="M360,64.72c0.14,0.34,0.18,0.69,0.3,1.03c0.11,0.3-0.05-0.55-0.03-0.23c0.01,0.1,0.02,0.2,0.03,0.29
			c0.02,0.22,0.02,0.45,0.02,0.68c0,0.8-0.1,1.6-0.2,2.4c-0.21,1.66-0.47,3.37,0,5.01c0.63,2.22,2.57,3.84,4.89,3.95
			c2.31,0.11,4.49-1.35,5.69-3.25c1.43-2.27,1.39-5.12,1.23-7.7c-1.55,0.42-3.11,0.84-4.66,1.26c0.41,0.61,0.77,1.24,1.08,1.91
			c0.06,0.12,0.11,0.24,0.16,0.37c-0.03-0.08-0.07-0.15-0.1-0.23c0.09,0.11,0.16,0.43,0.21,0.56c0.12,0.35,0.23,0.7,0.33,1.06
			c0.1,0.36,0.18,0.72,0.24,1.08c0.04,0.2,0.08,0.4,0.1,0.6c-0.03-0.34-0.03-0.25-0.01,0.04c0.07,0.77,0.08,1.54,0.03,2.31
			c-0.08,1.31,1.21,2.56,2.5,2.5c1.43-0.06,2.41-1.1,2.5-2.5c0.23-3.56-0.75-7.25-2.73-10.21c-0.6-0.89-1.73-1.5-2.82-1.15
			c-1.01,0.33-1.9,1.29-1.84,2.41c0.06,0.91,0.11,1.82,0.07,2.73c-0.01,0.23-0.03,0.47-0.05,0.7c-0.04,0.5,0.08-0.36-0.02,0.12
			c-0.05,0.23-0.09,0.45-0.15,0.67c-0.04,0.15-0.1,0.55-0.21,0.65c0,0,0.2-0.41,0.05-0.14c-0.06,0.1-0.1,0.2-0.16,0.3
			c-0.05,0.09-0.35,0.51-0.12,0.21c0.23-0.3-0.14,0.14-0.22,0.23c-0.08,0.07-0.52,0.47-0.23,0.22c0.28-0.24-0.16,0.09-0.27,0.15
			c-0.07,0.04-0.14,0.06-0.21,0.1c-0.22,0.14,0.22-0.12,0.24-0.1c-0.03-0.02-0.48,0.13-0.51,0.14c-0.22,0.09,0.27-0.05,0.3-0.04
			c-0.04-0.02-0.24,0.01-0.29,0.01c-0.29,0.03-0.08-0.18,0.23,0.05c-0.05-0.04-0.16-0.01-0.21-0.05c-0.01-0.01-0.2-0.07-0.21-0.06
			c0.06-0.03,0.42,0.26,0.26,0.1c-0.04-0.04-0.15-0.09-0.2-0.12c-0.34-0.18,0.15,0.09,0.18,0.15c-0.03-0.06-0.44-0.51-0.16-0.11
			c0.27,0.38-0.03-0.06-0.08-0.15c-0.03-0.05-0.05-0.11-0.08-0.16c-0.12-0.19,0.13,0.32,0.13,0.31c0-0.13-0.09-0.29-0.12-0.42
			c-0.01-0.06-0.02-0.13-0.04-0.19c-0.08-0.33,0.04,0.21,0.03,0.28c0.06-0.62-0.03-1.27,0.03-1.91c0.07-0.69,0.17-1.38,0.25-2.07
			c0.2-1.68,0.3-3.51-0.35-5.11c-0.25-0.63-0.54-1.14-1.15-1.49c-0.54-0.31-1.33-0.45-1.93-0.25
			C360.58,62.03,359.47,63.43,360,64.72L360,64.72z"/>
	</g>
</g>
<g>
	<g>
		<path d="M380.84,74.65c4-0.65,8.49-1.9,10.27-5.97c0.92-2.11,1.11-4.38,0.11-6.5c-0.99-2.09-3.17-3.24-5.41-3.38
			c-4.72-0.29-7.87,4.11-8.61,8.3c-0.72,4.09,0.04,8.89,3.75,11.34c3.53,2.34,9.45,0.6,10.23-3.84c0.23-1.28-0.34-2.76-1.75-3.08
			c-1.22-0.28-2.83,0.37-3.08,1.75c-0.03,0.16-0.07,0.31-0.1,0.46c-0.08,0.41,0.01-0.14,0.09-0.17c-0.04,0.02-0.19,0.34-0.22,0.39
			c-0.23,0.42,0.31-0.25,0.07-0.1c-0.09,0.06-0.19,0.19-0.26,0.26c-0.34,0.35,0.37-0.18,0.09-0.07c-0.11,0.04-0.22,0.14-0.32,0.2
			c-0.48,0.27-0.09-0.06,0.04,0c-0.09-0.04-0.61,0.18-0.74,0.22c-0.53,0.15,0.59-0.02,0.05,0c-0.13,0-0.26,0.01-0.39,0.01
			c-0.13,0-0.26-0.01-0.39-0.02c-0.52-0.02,0.42,0.15,0.12,0.01c-0.11-0.05-0.26-0.06-0.38-0.09c-0.56-0.16-0.01-0.09,0.01,0.03
			c-0.03-0.15-0.65-0.21-0.68-0.39c0.08,0.06,0.15,0.12,0.23,0.17c-0.1-0.08-0.19-0.17-0.28-0.26c-0.11-0.11-0.21-0.24-0.33-0.35
			c-0.26-0.25,0.3,0.49-0.02-0.02c-0.08-0.14-0.17-0.27-0.26-0.4c-0.08-0.14-0.15-0.28-0.23-0.42c-0.28-0.48,0.11,0.37-0.05-0.11
			c-0.1-0.31-0.21-0.62-0.29-0.94c-0.05-0.19-0.08-0.39-0.12-0.58c-0.14-0.63,0.02,0.37-0.01-0.03c-0.05-0.71-0.08-1.41-0.03-2.12
			c0.01-0.11,0.09-0.79,0-0.13c0.02-0.17,0.05-0.35,0.09-0.52c0.07-0.36,0.15-0.72,0.25-1.07c0.1-0.35,0.23-0.69,0.35-1.04
			c0.13-0.39-0.27,0.49,0.05-0.1c0.1-0.19,0.19-0.38,0.3-0.57c0.11-0.19,0.23-0.36,0.34-0.54c0.35-0.54-0.21,0.18,0.06-0.08
			c0.13-0.12,0.24-0.26,0.36-0.38c-0.01,0.01,0.51-0.46,0.22-0.22c-0.26,0.22,0.22-0.14,0.23-0.15c0.13-0.08,0.28-0.15,0.41-0.22
			c0.3-0.18-0.55,0.14,0.01,0c0.18-0.04,0.37-0.09,0.54-0.15c0.57-0.16-0.52-0.02,0.08-0.01c0.15,0,0.31,0,0.46,0
			c0.03,0,0.06,0,0.09,0c0.28,0.03,0.25,0.02-0.12-0.02c0.07-0.04,0.36,0.09,0.44,0.11c0.03,0.01,0.06,0.02,0.09,0.03
			c0.26,0.1,0.23,0.08-0.09-0.05c0.11-0.02,0.29,0.2,0.39,0.23c0.25,0.07-0.33-0.38,0,0.01c0.09,0.09,0.18,0.18,0.26,0.27
			c-0.18-0.25-0.23-0.29-0.12-0.14c0.02,0.11,0.24,0.27,0.22,0.39c-0.04-0.09-0.08-0.18-0.11-0.27c0.03,0.08,0.06,0.17,0.08,0.25
			c0.02,0.07,0.14,0.38,0.1,0.43c-0.01-0.1-0.03-0.21-0.04-0.31c0.01,0.09,0.02,0.18,0.02,0.27c0,0.15-0.01,0.3,0,0.45
			c0.02,0.57,0.12-0.36,0.02-0.03c-0.11,0.35-0.19,0.72-0.29,1.08c-0.1,0.35,0.29-0.51-0.01,0.01c-0.09,0.16-0.17,0.33-0.27,0.49
			c-0.1,0.16-0.21,0.31-0.31,0.47c0.34-0.5,0-0.03-0.09,0.06c-0.13,0.13-0.26,0.25-0.4,0.38c-0.37,0.34,0.27-0.14-0.2,0.14
			c-0.38,0.22-0.75,0.44-1.14,0.64c-0.6,0.32,0.28-0.08-0.11,0.05c-0.24,0.08-0.48,0.18-0.72,0.26c-0.42,0.13-0.85,0.25-1.28,0.35
			c-0.86,0.2-1.74,0.35-2.61,0.49c-1.29,0.21-2.13,1.89-1.75,3.08C378.22,74.31,379.46,74.88,380.84,74.65L380.84,74.65z"/>
	</g>
</g>
<g>
	<g>
		<path d="M194.35,122.12c0.09-0.62,0.15-0.63,0.58-1.12c0.42-0.48,1-1.1,1.44-1.43c0.4-0.3,0.85-0.51,1.25-0.62
			c0.28-0.07,0-0.02-0.06-0.01c0.17-0.02,0.32-0.01,0.49-0.01c0.12,0,0.45,0.09,0.06,0c0.16,0.04,0.31,0.07,0.46,0.13
			c-0.23-0.09-0.12-0.14,0.05,0.06c-0.03-0.04-0.25-0.21-0.04-0.02c0,0,0.14,0.14,0.13,0.13c0.25,0.53,0.21,1.09,0.22,1.82
			c0.02,1.39,0.14,2.64-0.42,3.84c-0.13,0.28-0.48,0.68-0.77,1.01c-0.53,0.61-1.09,1.24-1.49,1.95c-0.8,1.44-0.98,3.09-0.61,4.69
			c0.75,3.16,3.78,5.28,6.97,5.19c3.69-0.11,6.63-2.69,8.24-5.86c0.61-1.2,0.32-2.71-0.9-3.42c-1.11-0.65-2.81-0.31-3.42,0.9
			c-0.58,1.14-1.27,2.16-2.1,2.71c-0.92,0.6-1.82,0.82-2.63,0.6c-0.41-0.11-0.24-0.04-0.53-0.22c-0.06-0.04-0.4-0.31-0.1-0.05
			c-0.09-0.08-0.17-0.17-0.26-0.25c-0.19-0.19-0.03-0.01,0,0.04c-0.1-0.13-0.17-0.28-0.26-0.41c-0.04-0.06-0.18-0.43-0.05-0.07
			c-0.06-0.15-0.09-0.31-0.14-0.47c-0.14-0.47-0.02-0.18-0.02-0.06c0-0.12,0-0.24,0-0.36c0-0.4-0.1,0.33,0-0.05
			c0.03-0.12,0.05-0.24,0.1-0.35c-0.14,0.36,0.33-0.51,0.19-0.3c0.21-0.3,0.49-0.57,0.73-0.85c1.08-1.26,1.91-2.6,2.21-4.26
			c0.27-1.53,0.32-3.11,0.24-4.66c-0.09-1.77-0.53-3.59-1.89-4.82c-1.16-1.06-2.78-1.63-4.35-1.54c-1.95,0.11-3.6,1-5.04,2.27
			c-1.32,1.15-2.86,2.79-3.11,4.58c-0.19,1.34,0.32,2.68,1.75,3.08C192.44,124.19,194.16,123.47,194.35,122.12L194.35,122.12z"/>
	</g>
</g>
<g>
	<g>
		<path d="M215.36,125.57c2.97-0.38,6.15-0.71,9-1.68c2.77-0.95,4.78-3.15,5.13-6.1c0.34-2.8-1.07-5.66-3.55-7.06
			c-2.33-1.31-5.29-1.46-7.87-1.02c-2.43,0.41-4.63,1.65-6.1,3.64c-1.69,2.3-1.75,5.25-1.76,7.98c-0.02,2.9-0.19,5.85,0.02,8.75
			c0.19,2.62,0.93,5.2,3.13,6.82c2.39,1.76,5.66,1.59,8.21,0.26c2.71-1.4,4.47-4.1,6.05-6.6c1.73-2.73-2.6-5.24-4.32-2.52
			c-1.35,2.13-3.67,5.95-6.5,5.07c-1.02-0.32-1.38-1.45-1.52-2.53c-0.27-2-0.09-4.1-0.08-6.11c0.01-2.06-0.2-4.27,0.14-6.31
			c0.24-1.44,0.83-2.4,2.02-3.03c1.69-0.9,6.21-1.37,7.09,1.15c0.52,1.5-0.61,2.57-1.96,2.95c-2.31,0.65-4.75,1.04-7.13,1.34
			c-1.34,0.17-2.5,1.03-2.5,2.5C212.86,124.29,214.01,125.74,215.36,125.57L215.36,125.57z"/>
	</g>
</g>
<g>
	<g>
		<path d="M230.9,114.44c-1.21,5.79-1.8,11.71-1.72,17.63c0.03,1.96,2.09,3.03,3.76,2.16c2.01-1.05,2.45-3.22,2.91-5.23
			c0.06-0.25,0.12-0.51,0.2-0.76c0.02-0.06,0.04-0.12,0.06-0.18c0.1-0.26,0.08-0.23-0.05,0.09c-0.02-0.2,0.48-0.51-0.02-0.08
			c0.25-0.22,0.31-0.24,0.01-0.05c-0.1,0.07-0.22,0.09-0.34,0.07c0.18-0.01,0.35,0,0.53,0.02c-0.4-0.05,0.42,0.11,0.43,0.11
			c0.71,0.14,1.44,0.28,2.16,0.22c3.23-0.25,5.08-3.55,6.22-6.22c1.13-2.65,1.67-5.52,1.52-8.4c-0.07-1.35-1.1-2.5-2.5-2.5
			c-1.44,0-2.4,1.15-2.5,2.5c-0.46,5.99-0.92,11.98-1.38,17.97c-0.1,1.35,1.22,2.5,2.5,2.5c1.44,0,2.4-1.15,2.5-2.5
			c0.46-5.99,0.92-11.98,1.38-17.97c-1.67,0-3.33,0-5,0c0.11,2.26-0.21,4.45-1.09,6.46c-0.42,0.95-1.08,2.15-1.65,2.82
			c0.04-0.04-0.59,0.56-0.36,0.38c0.15-0.12,0.3,0-0.05-0.01c-0.47,0,0.01,0.04-0.43-0.07c-0.38-0.09-0.77-0.15-1.15-0.2
			c-2.74-0.39-4.76,1.07-5.59,3.63c-0.25,0.76-0.35,1.55-0.54,2.32c-0.05,0.19-0.11,0.37-0.16,0.56c-0.14,0.54,0.05-0.07-0.02,0.08
			c-0.24,0.49,0.12-0.07,0,0.06c-0.39,0.46,0.3-0.15-0.11,0.07c1.25,0.72,2.51,1.44,3.76,2.16c-0.07-5.48,0.42-10.93,1.54-16.3
			c0.28-1.32-0.39-2.7-1.75-3.08C232.74,112.35,231.18,113.11,230.9,114.44L230.9,114.44z"/>
	</g>
</g>
<g>
	<g>
		<path d="M248.13,114.43c-0.35,3.35-0.56,6.71-0.62,10.07c-0.03,1.68-0.01,3.37,0.04,5.05c0.05,1.67-0.1,3.56,1.23,4.81
			c2.74,2.58,6.61-0.82,8.33-2.97c2.04-2.55,3.8-5.35,5.63-8.06c1.99-2.95,3.72-6.46,2.61-10.08c-0.36-1.18-1.5-1.98-2.74-1.79
			c-1.3,0.2-2.05,1.18-2.17,2.46c-0.62,6.65-1.01,13.32-1.14,20c-0.07,3.22,4.93,3.22,5,0c0.14-6.68,0.52-13.35,1.14-20
			c-1.64,0.22-3.27,0.44-4.91,0.66c0.77,2.53-1.42,5.22-2.84,7.3c-1.68,2.47-3.22,5.33-5.4,7.4c0.07-0.07-0.57,0.5-0.46,0.42
			c-0.3,0.24-0.82,0.38-1.08,0.64c0.53-0.55,2.11,0.53,1.87,1.15c0.11-0.28-0.04-0.84-0.05-1.16c-0.07-1.81-0.09-3.62-0.07-5.44
			c0.04-3.5,0.25-6.99,0.62-10.46c0.14-1.34-1.25-2.5-2.5-2.5C249.16,111.93,248.27,113.09,248.13,114.43L248.13,114.43z"/>
	</g>
</g>
<g>
	<g>
		<path d="M279.79,119.16c1.46-1.75,2.74-3.63,2.39-6.02c-0.38-2.63-2.71-4.32-5.33-3.86c-2.27,0.4-3.75,2.28-5,4.05
			c-1.23,1.74-2.17,3.67-2.89,5.67c-0.71,1.97-1.12,4.03-1.31,6.11c-0.17,1.87,0.04,3.99,1.11,5.59c1.26,1.87,3.55,2.77,5.74,2.05
			c2.17-0.71,3.68-2.54,4.86-4.41c2.55-4.05,3.71-9.03,3.27-13.79c-1.64,0.22-3.27,0.44-4.91,0.66c0.54,3.06,0.18,6.23,0.15,9.32
			c-0.03,3.37,0.34,6.66,1.82,9.73c0.59,1.22,2.32,1.54,3.42,0.9c1.24-0.73,1.48-2.2,0.9-3.42c-1.23-2.56-1.19-5.51-1.12-8.28
			c0.08-3.22,0.21-6.39-0.35-9.58c-0.48-2.75-5.17-2.15-4.91,0.66c0.31,3.41-0.23,6.86-1.81,9.91c-0.7,1.35-1.59,2.57-2.64,3.46
			c-0.08,0.06-0.44,0.14-0.06,0.17c-0.26-0.15-0.29-0.17-0.1-0.05c-0.2-0.21-0.23-0.24-0.07-0.09c-0.09-0.33-0.3-0.77-0.33-1.24
			c-0.2-3.23,1-6.67,2.62-9.42c0.18-0.3,2.4-3.54,2.64-3.16c0.11,0.17-0.48-0.18-0.54-0.2c-0.06-0.06-0.08-0.12-0.07-0.21
			c-0.02,0.32-0.01,0.37,0.02,0.18c-0.18,0.66-0.59,1.17-1.03,1.7c-0.87,1.03-1.01,2.52,0,3.54
			C277.15,120.06,278.92,120.2,279.79,119.16L279.79,119.16z"/>
	</g>
</g>
<g>
	<g>
		<path d="M286.55,133.39c5.2,2.14,10.98-0.24,13.97-4.77c1.5-2.27,2.36-4.94,3.32-7.47c1.12-2.96,2.24-5.93,3.36-8.89
			c-1.61-0.44-3.21-0.89-4.82-1.33c-1.74,4.87-3.49,9.76-4.64,14.81c-0.55,2.42-1.72,5.81,0.62,7.65c2.1,1.64,5.78,1.03,8.1,0.25
			c1.28-0.43,2.12-1.72,1.75-3.08c-0.34-1.25-1.79-2.18-3.08-1.75c-0.87,0.29-1.74,0.51-2.66,0.53c-0.35,0.01-0.81-0.09-1.13-0.01
			c-0.1-0.02-0.19-0.04-0.29-0.07c0.29,0.4,0.58,0.79,0.87,1.19c-0.08-0.01,0.1-0.45-0.01-0.18c0.37-0.88,0.39-2.08,0.6-3.01
			c0.24-1.06,0.5-2.11,0.79-3.16c1.1-4.01,2.5-7.92,3.89-11.83c0.45-1.27-0.51-2.74-1.75-3.08c-1.4-0.39-2.6,0.48-3.08,1.75
			c-0.96,2.53-1.91,5.07-2.87,7.6c-0.82,2.16-1.53,4.41-2.63,6.45c-0.88,1.62-2.09,3.03-3.63,3.67c-1.85,0.77-3.51,0.69-5.37-0.08
			c-1.25-0.51-2.75,0.56-3.08,1.75C284.41,131.75,285.3,132.87,286.55,133.39L286.55,133.39z"/>
	</g>
</g>
<g>
	<g>
		<path d="M312.78,111.46c-1.88,7.34-3.36,14.77-4.45,22.27c-0.46,3.17,3.65,4.38,4.82,1.33c0.77-1.99,1.74-3.9,2.86-5.71
			c0.36-0.59,0.99-2.02,1.68-2.33c0.26-0.12,0.48,0.08,0.78,0.43c0.51,0.58,0.81,1.45,1.02,2.18c0.08,0.29,0.18,0.71,0.2,0.94
			c0.01,0.2,0.03,0.44-0.01,0.63c0.03-0.15,0.08-0.07-0.03,0.03c-0.85,0.81-3.29,0.12-4.28-0.42c-2.83-1.53-5.36,2.78-2.52,4.32
			c3.01,1.63,7.89,2.29,10.48-0.5c2.38-2.57,1.3-6.93-0.43-9.56c-2.21-3.34-6.61-4.27-9.33-0.95c-2.31,2.82-3.94,6.22-5.24,9.6
			c1.61,0.44,3.21,0.89,4.82,1.33c1.08-7.5,2.57-14.93,4.45-22.27C318.4,109.67,313.57,108.34,312.78,111.46L312.78,111.46z"/>
	</g>
</g>
<g>
	<g>
		<path d="M326.85,112.37c-0.09,3.54-0.31,7.07-0.68,10.59c-0.18,1.65-0.38,3.29-0.63,4.93c-0.15,1.01-0.16,3.06-0.84,3.66
			c1.39,0.81,2.79,1.62,4.18,2.43c0.37-1.28,0.79-2.54,1.27-3.79c0.35-0.89,0.74-2.4,1.43-3.08c0.55-0.54,1.69-0.58,2.4-0.84
			c1.23-0.45,2.33-1.05,3.34-1.89c2.07-1.74,2.68-4.24,2.88-6.83c0.17-2.17,0.06-4.5,1.23-6.42c-1.55-0.42-3.11-0.84-4.66-1.26
			c-0.4,3.87-0.79,7.74-1.19,11.61c-0.37,3.64-0.76,7.27-1.7,10.81c-0.83,3.11,4,4.44,4.82,1.33c1.01-3.82,1.43-7.76,1.83-11.68
			c0.41-4.03,0.83-8.05,1.24-12.08c0.27-2.59-3.46-3.23-4.66-1.26c-1.37,2.24-1.65,4.81-1.81,7.38c-0.13,2.11-0.09,4.11-2.15,5.22
			c-0.84,0.45-1.78,0.59-2.67,0.92c-1.39,0.51-2.52,1.3-3.3,2.58c-1.44,2.38-2.36,5.27-3.13,7.93c-0.72,2.51,2.38,4.03,4.18,2.43
			c1.32-1.18,1.65-2.87,1.92-4.53c0.34-2.08,0.62-4.16,0.87-6.25c0.46-3.96,0.73-7.94,0.83-11.93
			C331.93,109.16,326.93,109.16,326.85,112.37L326.85,112.37z"/>
	</g>
</g>
<g>
	<g>
		<path d="M352.34,113.07c-5.12-1.58-8.16,4.64-9.66,8.42c-0.88,2.22-1.4,4.54-1.7,6.9c-0.26,2.09-0.57,4.6,0.73,6.42
			c1.34,1.87,3.92,2.68,6.15,2.59c2.22-0.08,4.32-0.93,5.96-2.42c3.41-3.09,4.13-8.74,4.21-13.07c0.05-2.52,0.16-6.05-1.76-7.96
			c-2.07-2.07-5.81-1.86-8.45-1.39c-1.33,0.24-2.08,1.86-1.75,3.08c0.39,1.4,1.74,1.98,3.08,1.75c0.73-0.13,1.48-0.14,2.23-0.1
			c0.32,0.02,0.62,0.06,0.93,0.13c0.06,0.01,0.55,0.18,0.41,0.06c-0.13-0.13,0.09,0.43,0.11,0.54c0.01,0.05,0.08,0.62,0.1,0.84
			c0.08,0.9,0.12,1.8,0.11,2.7c-0.02,2.9-0.33,6.35-1.89,8.87c-0.27,0.43-0.73,0.96-1.05,1.19c-0.45,0.33-0.88,0.51-1.4,0.65
			c-1,0.27-1.94,0.09-2.8-0.26c-0.14-0.06-0.15,0.02-0.04,0.15c-0.15-0.17-0.09-0.34-0.09-0.61c-0.02-0.82,0.04-1.66,0.13-2.48
			c0.15-1.47,0.5-2.92,0.93-4.33c0.52-1.69,1.23-3.29,2.12-4.82c0.39-0.67,0.72-1.2,1.31-1.72c0.11-0.1,0.46-0.33,0.52-0.36
			c-0.15,0.08,0.22-0.05,0.22-0.05c-0.22,0.01-0.43-0.04,0.01,0.09C354.1,118.84,355.41,114.02,352.34,113.07L352.34,113.07z"/>
	</g>
</g>
<g>
	<g>
		<path d="M365.12,121.42c0.2-0.57,0.38-1.1,0.68-1.63c0.12-0.21,0.22-0.35,0.34-0.48c0.03-0.03,0.3-0.31,0.2-0.23
			c0.18-0.13,0.36-0.04,0.08-0.08c0.27,0.05,0.45,0.19,0.7,0.33c0.24,0.14,0.48,0.29,0.72,0.44c0.12,0.07,0.23,0.15,0.35,0.23
			c0.03,0.02,0.35,0.25,0.16,0.1c0.21,0.17,0.41,0.36,0.6,0.55c0.17,0.17,0.17,0.2,0.23,0.29c0.1,0.16,0.13,0.61,0.01,0.94
			c-0.37,1.02-1.08,1.91-1.88,2.77c-0.86,0.93-1.81,1.79-2.83,2.49c-1.19,0.82-2.45,1.52-3.57,2.44c-1.35,1.11-2.52,2.69-2.31,4.53
			c0.21,1.85,1.63,2.77,3.21,3.42c3.04,1.26,6.25,1.71,8.97-0.49c1.05-0.85,0.88-2.65,0-3.54c-1.04-1.04-2.48-0.85-3.54,0
			c0.24-0.19-0.37,0.15-0.02,0.01c-0.15,0.06-0.33,0.1-0.49,0.13c0.06-0.01,0.32-0.03,0.02-0.01c-0.77,0.03-0.83-0.01-1.49-0.18
			c-0.59-0.16-1.17-0.36-1.74-0.59c-0.39-0.16,0.02-0.07-0.34-0.16c-0.37-0.09-0.16-0.52,0.19,0.3c0.02,0.39,0.03,0.79,0.05,1.18
			c0.05-0.09,0.1-0.17,0.15-0.26c0.25-0.17,0.71-0.68,0.97-0.88c0.58-0.42,1.2-0.78,1.8-1.17c1.28-0.82,2.49-1.75,3.59-2.8
			c2.1-2,4.45-4.78,4.31-7.86c-0.14-3.23-2.83-5.5-5.62-6.7c-1.9-0.82-3.85-0.5-5.46,0.77c-1.54,1.21-2.25,3.02-2.88,4.81
			c-0.45,1.27,0.51,2.74,1.75,3.08C363.43,123.55,364.67,122.7,365.12,121.42L365.12,121.42z"/>
	</g>
</g>
<g>
	<g>
		<path d="M381.2,119.19c-2.16,2.99-3.64,6.55-4.23,10.2c-0.59,3.67-1.1,8.62,2.42,11c1.42,0.96,3.4,1.41,5.09,1.54
			c2.29,0.17,4.16-1.15,4.92-3.28c0.62-1.74,0.65-3.84,0.66-5.68c0.01-2.13-0.22-4.25-0.52-6.37c-0.29-2.07-0.46-4.59-1.6-6.4
			c-1.42-2.26-4.46-2.92-6.47-1.05c-0.99,0.92-0.93,2.6,0,3.54c0.98,0.98,2.55,0.92,3.54,0c-0.55,0.51-0.63,0.14-1.11,0.28
			c-0.22,0.06-0.19-0.25-0.09,0.09c0.24,0.84,0.39,1.71,0.54,2.57c0.32,1.78,0.56,3.57,0.66,5.38c0.1,1.74,0.13,3.56-0.17,5.29
			c-0.02,0.11-0.15,0.98-0.11,0.66c-0.16,0.26-0.17,0.3-0.03,0.12c0.06-0.05,0.13-0.09,0.2-0.13c0.23-0.02,0.18-0.02-0.14-0.01
			c-0.31-0.02-0.37-0.03-0.17-0.01c-0.36-0.05-0.71-0.15-1.06-0.23c-0.76-0.19-1.06-0.18-1.61-0.63c0.15,0.13-0.1-0.19-0.15-0.31
			c0.16,0.38-0.18-0.81-0.1-0.38c-0.27-1.47-0.09-3.3,0.12-4.66c0.52-3.3,1.78-6.3,3.73-9c0.79-1.1,0.19-2.78-0.9-3.42
			C383.36,117.56,381.99,118.1,381.2,119.19L381.2,119.19z"/>
	</g>
</g>
<g>
	<g>
		<path d="M198.85,195.07c2.71-5,4.71-10.4,5.83-15.97c0.57-2.84,0.94-5.73,1.09-8.62c0.12-2.3,0.15-4.68-0.61-6.89
			c-0.74-2.14-2.18-4.08-4.48-4.64c-2.8-0.69-5.54,1.04-7.59,2.76c-4,3.36-6.29,8.62-7.43,13.6c-1.26,5.53-1.21,11.23-0.44,16.82
			c0.68,4.97,1.65,10.38,4.22,14.77c2.77,4.74,7.6,6.97,13,5.62c4.99-1.25,10.97-4.66,12.19-10.06c0.67-2.96-0.13-6.04-2.43-8.09
			c-2.05-1.83-4.73-2.69-7.31-3.46c-3.29-0.98-6.78-1.57-10.03-0.12c-2.79,1.25-4.56,3.74-4.88,6.76c-0.14,1.34,1.25,2.5,2.5,2.5
			c1.47,0,2.36-1.15,2.5-2.5c0.13-1.27,1.53-2.17,2.64-2.49c2.16-0.61,4.57,0.24,6.63,0.88c2.73,0.84,6.6,2.15,5.4,5.77
			c-0.58,1.75-2.06,2.95-3.6,3.87c-1.81,1.08-3.89,2.08-6.01,2.35c-3.58,0.45-5.77-2.13-7.1-5.12c-1.59-3.57-2.32-7.71-2.84-11.55
			c-0.58-4.31-0.7-8.81,0.07-13.1c0.69-3.83,1.98-7.82,4.46-10.89c1.07-1.33,2.53-2.77,4.18-3.34c0.24-0.08,0.45-0.14,0.68-0.11
			c0.05,0,0.32,0.18,0.21,0.09c0.36,0.31,0.62,0.89,0.79,1.48c0.56,1.92,0.37,4.01,0.23,6c-0.16,2.37-0.5,4.72-1,7.05
			c-1.06,4.94-2.79,9.68-5.19,14.13C193,195.38,197.32,197.9,198.85,195.07L198.85,195.07z"/>
	</g>
</g>
<g>
	<g>
		<path d="M216.31,196.95c3.63,0.82,7.38,1.11,11.08,0.7c3.29-0.37,7.06-0.93,9.67-3.15c2.64-2.24,2.7-6.1,0.27-8.53
			c-2.3-2.3-5.91-2.94-9.04-2.79c-7.05,0.36-13.57,4.84-17.66,10.42c-2.12,2.89-3.14,6.72-1.15,9.97c1.66,2.71,4.68,4.69,7.42,6.17
			c5.53,2.98,15.63,6.12,20.37,0.1c0.83-1.06,1.03-2.5,0-3.54c-0.87-0.87-2.7-1.07-3.54,0c-2.69,3.42-8.5,1.6-11.85,0.28
			c-2.2-0.86-4.35-2.1-6.18-3.59c-1.68-1.36-2.94-2.81-1.92-5.01c1.02-2.18,2.99-4,4.8-5.53c1.77-1.51,3.84-2.8,6.05-3.53
			c2.35-0.78,4.92-1.07,7.34-0.38c0.7,0.2,1.63,0.55,2.05,1.21c0.24,0.37,0.18,0.56-0.14,0.89c-0.67,0.7-1.75,1-2.67,1.25
			c-1.4,0.38-2.83,0.67-4.27,0.81c-3.12,0.3-6.24,0.12-9.3-0.57C214.5,191.42,213.16,196.24,216.31,196.95L216.31,196.95z"/>
	</g>
</g>
<g>
	<g>
		<path d="M242.2,190.82c-0.37,10.98-0.73,21.97-1.1,32.95c-0.05,1.35,1.18,2.5,2.5,2.5c1.48,0,2.35-1.15,2.5-2.5
			c0.62-5.44,1.25-10.88,1.87-16.32c0.3-2.64,0.6-5.28,0.91-7.91c0.16-1.4,0.32-2.8,0.48-4.2c0.13-1.15,0.08-2.56,0.5-3.65
			c-0.21,0.37-0.43,0.74-0.64,1.1c0.07-0.07,0.14-0.13,0.21-0.2c-0.37,0.21-0.74,0.43-1.1,0.64c0.09-0.02,0.19-0.03,0.28-0.05
			c-0.44,0-0.89,0-1.33,0c2.7,0.49,5.97,2.45,5.63,5.48c-0.11,0.96-0.52,1.85-1.58,2.08c-0.86,0.18-1.8,0.02-2.67,0.01
			c-0.57-0.01-1.11,0.02-1.68,0.09c-0.36,0.03-0.72,0.09-1.07,0.17c-0.58,0.09-0.49,0.17,0.27,0.22c0.3,0.3,0.6,0.6,0.9,0.9
			c0.04,0.19,0.09,0.37,0.13,0.56c-0.11,0.42-0.23,0.84-0.34,1.26c0.03-0.07,0.06-0.13,0.09-0.2c-0.3,0.3-0.6,0.6-0.9,0.9
			c0.06-0.04,0.12-0.08,0.19-0.13c2.65-1.8,0.15-6.13-2.52-4.32c-2.62,1.77-1.47,5.84,1.75,5.92c1.08,0.03,2.09-0.38,3.19-0.36
			c1.34,0.02,2.68,0.13,4-0.19c4.4-1.04,6.21-6.27,4.77-10.25c-0.78-2.15-2.35-3.86-4.26-5.09c-1.66-1.07-4.84-2.69-6.77-1.56
			c-1.3,0.76-1.51,2.1-1.67,3.45c-0.18,1.48-0.34,2.97-0.51,4.45c-0.32,2.8-0.64,5.61-0.96,8.41c-0.72,6.27-1.44,12.53-2.15,18.8
			c1.67,0,3.33,0,5,0c0.37-10.98,0.73-21.97,1.1-32.95C247.3,187.6,242.3,187.6,242.2,190.82L242.2,190.82z"/>
	</g>
</g>
<g>
	<g>
		<path d="M268.58,194.53c1.94-0.92,2.12-3.72,0.75-5.2c-1.77-1.92-4.21-0.96-6.23-0.07c-3.49,1.55-6.16,4.62-6.81,8.45
			c-0.35,2.08-0.27,4.22,1.22,5.87c1.23,1.36,3.1,2.24,4.82,2.76c3.33,1.02,7.14,0.92,10.57,0.51c3.93-0.47,7.91-1.69,10.54-4.84
			c0.87-1.03,1.01-2.52,0-3.54c-0.89-0.89-2.66-1.04-3.54,0c-1.68,2-3.95,2.85-6.48,3.29c-2.54,0.44-5.41,0.54-7.96,0.17
			c-1.34-0.2-2.77-0.58-3.87-1.4c-0.21-0.16-0.38-0.27-0.55-0.49c0.26,0.34,0.05,0.11,0.05-0.23c0-0.64,0.07-1.2,0.25-1.82
			c0.32-1.13,0.94-2.13,1.79-2.93c0.51-0.48,1.1-0.81,1.72-1.12c0.34-0.17,0.69-0.33,1.05-0.48c0.15-0.07,0.31-0.13,0.47-0.19
			c1.25-0.25,1.15-1.27-0.32-3.06c-1.22,0.58-1.54,2.32-0.9,3.42C265.89,194.88,267.36,195.11,268.58,194.53L268.58,194.53z"/>
	</g>
</g>
<g>
	<g>
		<path d="M278.6,189c-0.17,6.64,0.35,13.3,1.8,19.79c0.57,2.54,4.09,2.21,4.82,0c1.74-5.26,3.63-10.47,5.68-15.61
			c-1.03,0.58-2.05,1.16-3.08,1.75c-0.4-0.15-0.19-0.26-0.2,0.06c0-0.14,0.16,0.6,0.2,0.76c0.15,0.69,0.24,1.4,0.31,2.1
			c0.2,1.83,0.27,3.62-0.32,5.39c1.61,0.44,3.21,0.89,4.82,1.33c0.32-2.13,0.86-4.25,1.73-6.22c0.44-1,0.96-1.96,1.53-2.89
			c0.28-0.46,0.58-0.92,0.9-1.36c0.14-0.19,0.3-0.38,0.43-0.58c0.25-0.41,0.44-0.12-0.18,0c-0.44,0-0.89,0-1.33,0
			c-0.57-0.15-0.23-0.06,0.03,0.23c0.19,0.22,0.39,0.44,0.57,0.67c0.3,0.39,0.58,0.79,0.85,1.2c0.61,0.94,1.16,1.93,1.61,2.95
			c0.84,1.93,1.36,4.04,1.53,6.13c1.55-0.42,3.11-0.84,4.66-1.26c-0.06-0.1-0.13-0.26-0.11-0.38c0.25-1.33-0.37-2.7-1.75-3.08
			c-1.22-0.33-2.83,0.41-3.08,1.75c-0.28,1.52-0.13,2.87,0.61,4.24c1.14,2.1,4.86,1.24,4.66-1.26c-0.25-3.09-1-6-2.29-8.82
			c-0.59-1.29-1.31-2.51-2.14-3.66c-0.9-1.24-2-2.97-3.54-3.45c-2.02-0.64-3.34,0.77-4.42,2.22c-0.87,1.16-1.64,2.39-2.3,3.68
			c-1.37,2.69-2.33,5.57-2.78,8.56c-0.2,1.33,0.34,2.69,1.75,3.08c1.36,0.38,2.64-0.46,3.08-1.75c0.94-2.79,0.66-5.68,0.27-8.54
			c-0.35-2.57-1.12-4.93-3.75-5.92c-1.36-0.51-2.61,0.59-3.08,1.75c-2.04,5.15-3.94,10.35-5.68,15.61c1.61,0,3.21,0,4.82,0
			c-1.35-6.07-1.78-12.26-1.62-18.46C283.68,185.78,278.68,185.78,278.6,189L278.6,189z"/>
	</g>
</g>
<g>
	<g>
		<path d="M313.31,190.17c-1.53-0.88-3.4-0.83-4.9,0.11c-1.36,0.85-2.15,2.23-2.73,3.67c-1.08,2.69-1.59,5.98-1,8.84
			c0.71,3.43,3.89,4.67,7.05,4.85c2.98,0.17,6.27-0.77,8.54-2.74c2.74-2.38,2.66-6.69,2.28-10c-0.11-1.01-0.53-1.88-1.54-2.28
			c-0.94-0.38-1.99-0.2-2.73,0.52c-2.34,2.24-0.45,5.92,0.87,8.2c1.43,2.46,3.36,4.49,5.63,6.17c1.08,0.81,2.79,0.18,3.42-0.9
			c0.74-1.27,0.19-2.61-0.9-3.42c-1.23-0.92-2.49-2.28-3.35-3.6c-0.5-0.77-0.96-1.58-1.32-2.42c-0.11-0.25-0.26-0.63-0.37-0.98
			c-0.01-0.04-0.15-0.46-0.13-0.47c0.31-0.14-0.82,1.43-0.31,0.94c-1.42-0.59-2.85-1.18-4.27-1.77c0.16,1.38,0.2,2.76,0.1,4.14
			c-0.07,0.93-0.21,1.77-0.92,2.32c-1.4,1.09-3.83,1.51-5.64,1.21c-0.51-0.09-0.92-0.21-1.24-0.34c-0.42-0.18-0.23-0.2-0.12-0.07
			c-0.19-0.24-0.08-0.12-0.13-0.29c-0.12-0.39-0.13-0.59-0.14-1.18c-0.01-0.68,0.02-1.37,0.11-2.04c0.15-1.08,0.44-2.24,0.87-3.24
			c0.06-0.14,0.36-0.69,0.55-0.85c-0.19,0.18,0.39-0.2,0.12-0.06c-0.07,0.04-0.26,0.02-0.33-0.02
			C313.58,196.09,316.1,191.78,313.31,190.17L313.31,190.17z"/>
	</g>
</g>
<g>
	<g>
		<path d="M310.79,193.5c2.11,0.66,4.3,1.04,6.5,1.19c0.2,0.01,0.4,0.03,0.6,0.04c0.06,0.01,0.57,0.07,0.12,0
			c-0.41-0.06-0.05,0,0.04,0.01c0.21,0.04,0.44,0.15,0.64,0.17c-0.34-0.16-0.43-0.19-0.26-0.11c0.04,0.02,0.09,0.04,0.13,0.07
			c0.09,0.05,0.38,0.26,0.03-0.01c-0.43-0.33,0.02-0.01,0.01,0.04c0,0.02-0.34-0.54-0.17-0.22c0.05,0.1,0.21,0.44,0.04,0.02
			c-0.16-0.39-0.05-0.11-0.02-0.02c0.09,0.31-0.11,0.15-0.02-0.26c0,0.02,0.01,0.23,0,0.23c-0.03,0,0.13-0.68,0.03-0.33
			c0.19-0.4,0.24-0.51,0.14-0.34c-0.1,0.17-0.02,0.07,0.22-0.28c-0.44,0.52-0.73,1.07-0.73,1.77c0,0.61,0.27,1.35,0.73,1.77
			c0.93,0.85,2.63,1.07,3.54,0c0.64-0.76,1.03-1.57,1.07-2.58c0.03-0.8-0.2-1.59-0.56-2.29c-0.69-1.34-2.11-2.22-3.56-2.48
			c-0.72-0.13-1.44-0.18-2.16-0.24c-0.28-0.02-0.57-0.05-0.85-0.08c-0.17-0.02-0.34-0.05-0.51-0.06c0.11,0.01,0.22,0.03,0.33,0.04
			c-0.11-0.02-0.23-0.03-0.34-0.05c-1.24-0.19-2.46-0.49-3.66-0.86c-1.25-0.39-2.78,0.46-3.08,1.75
			C308.74,191.78,309.46,193.08,310.79,193.5L310.79,193.5z"/>
	</g>
</g>
<g>
	<g>
		<path d="M330.4,205.22c3.72,0.17,8.65-0.67,10.54-4.31c0.85-1.64,1.22-3.49,1.69-5.27c0.52-1.96,1.04-3.93,1.56-5.89
			c-1.64-0.22-3.27-0.44-4.91-0.66c0,2.37,0,4.74,0,7.12c0,1.13,0,2.25,0,3.38c0,1.19-0.11,2.44,0.09,3.62
			c0.47,2.84,3.36,3.49,5.8,3.03c2.17-0.41,3.91-1.78,5.18-3.52c0.8-1.09,0.18-2.79-0.9-3.42c-1.27-0.74-2.62-0.2-3.42,0.9
			c0.12-0.15,0.08-0.11-0.11,0.12c-0.12,0.13-0.25,0.25-0.38,0.37c-0.23,0.2-0.27,0.23-0.12,0.1c-0.15,0.1-0.3,0.19-0.45,0.27
			c-0.47,0.3,0.17,0.01-0.37,0.17c-0.1,0.03-1,0.2-0.61,0.17c-0.17,0.01-0.35,0.02-0.52,0.01c-0.3-0.02-0.3-0.02-0.01,0
			c0.06,0.03,0.12,0.05,0.18,0.08c0.5,1.23,0.72,1.49,0.65,0.77c0.15-0.82,0-1.83,0-2.67c0-3.5,0-7,0-10.5
			c0-2.8-4.18-3.42-4.91-0.66c-0.84,3.16-1.5,6.46-2.58,9.55c-0.14,0.4-0.36,0.89-0.65,1.11c-0.28,0.21-0.78,0.45-1.22,0.6
			c-1.51,0.48-2.94,0.63-4.52,0.55c-1.35-0.06-2.5,1.19-2.5,2.5C327.9,204.13,329.05,205.16,330.4,205.22L330.4,205.22z"/>
	</g>
</g>
<g>
	<g>
		<path d="M351.25,189c0.24,3.39,0.48,6.78,0.72,10.18c0.07,0.96,0.04,2.01,0.49,2.89c0.45,0.88,1.21,1.52,2.19,1.75
			c1.7,0.41,3.27-0.63,4.64-1.15c1.44-0.55,2.93-0.96,4.45-1.24c0.79-0.14,1.08-0.18,1.84-0.24c0.38-0.03,0.75-0.06,1.13-0.06
			c0.42,0,0.1-0.01-0.15-0.2c0.38,0.3-0.01,0.05-0.01-0.04c0,0,0.2,0.57,0.01-0.04c0.07,0.24,0.13,0.49,0.19,0.74
			c0.09,0.37-0.01-0.38,0,0c0,0.15,0.02,0.3,0.03,0.44c0.02,0.35,0.03,0.7,0.01,1.04c0,0.05-0.08,0.39-0.01,0.14
			c0.07-0.24-0.4,0.42,0.09-0.14c-0.13,0.15,0.34-0.51,0.35-0.37c0.03-0.01,0.05-0.01,0.08-0.02c-0.08,0.03-0.16,0.05-0.24,0.08
			c-0.77,0.24-1.58,0.41-2.38,0.55c-1.28,0.22-3.17,0.27-4.73,0.15c-1.45-0.12-3.17-0.52-4.76-1.07c-1.24-0.43-2.79,0.49-3.08,1.75
			c-0.32,1.39,0.42,2.61,1.75,3.08c3.23,1.12,6.77,1.57,10.18,1.2c1.78-0.19,3.79-0.42,5.41-1.25c1.83-0.94,2.39-2.88,2.34-4.8
			c-0.05-1.67-0.32-3.36-1.43-4.67c-1.29-1.52-3.23-1.65-5.08-1.48c-1.85,0.17-3.7,0.49-5.49,1.02c-0.76,0.23-1.52,0.49-2.26,0.78
			c-0.48,0.19-0.95,0.39-1.43,0.6c-0.18,0.08-0.37,0.16-0.55,0.25c-0.21,0.09-0.18,0.09,0.08-0.03c-0.1,0.04-0.2,0.07-0.3,0.09
			c-0.03,0.01-0.07,0.02-0.1,0.03c0.29-0.09,0.56-0.02,0.81,0.21c0.58,0.12,0.91,0.5,1,1.14c-0.01-0.11-0.02-0.22-0.02-0.32
			c0-0.53-0.08-1.08-0.11-1.62c-0.07-1.02-0.14-2.05-0.22-3.07c-0.15-2.1-0.3-4.2-0.44-6.3c-0.09-1.3-1.08-2.56-2.5-2.5
			C352.48,186.56,351.15,187.6,351.25,189L351.25,189z"/>
	</g>
</g>
<g>
	<g>
		<path d="M380.51,199.92c1.75,0.24,3.49,0.48,5.24,0.73c0.33,0.1,0.66,0.12,1,0.04c0.33-0.02,0.64-0.11,0.93-0.3
			c0.52-0.3,1.01-0.9,1.15-1.49c0.15-0.64,0.11-1.36-0.25-1.93c-0.33-0.51-0.87-1.06-1.49-1.15c-1.75-0.24-3.49-0.48-5.24-0.73
			c-0.33-0.1-0.66-0.12-1-0.04c-0.33,0.02-0.64,0.11-0.93,0.3c-0.52,0.3-1.01,0.9-1.15,1.49c-0.15,0.64-0.11,1.36,0.25,1.93
			C379.34,199.27,379.89,199.83,380.51,199.92L380.51,199.92z"/>
	</g>
</g>
<g>
	<g>
		<path d="M294.08,224.58c-0.02,2.59-0.16,5.24,0.04,7.82c0.23,3,2.45,5.36,5.62,4.69c2.4-0.5,4.06-2.7,5.38-4.6
			c1.4-2.03,2.41-4.34,3.07-6.71c-1.61-0.44-3.21-0.89-4.82-1.33c-0.47,2.5-0.44,5.08,0.38,7.5c0.8,2.37,2.3,5.1,5.18,5
			c2.41-0.09,4.34-2.41,5.46-4.33c1.24-2.12,1.84-4.6,1.75-7.05c-0.09-2.4-3.41-3.5-4.66-1.26c-1.17,2.1-0.92,4.43-0.28,6.67
			c0.51,1.79,1.31,3.67,2.75,4.9c1.8,1.54,4.15,1.71,6.25,0.68c2.1-1.03,3.45-3,4.28-5.1c-1.64-0.22-3.27-0.44-4.91-0.66
			c-0.02,1.71-0.05,3.43-0.07,5.14c-0.01,0.57-0.28,1.87-0.04,2.36c-0.02,0.17-0.02,0.21,0,0.12c0.45-0.26,0.9-0.51,1.36-0.77
			c0,0.04-0.41-0.2-0.43-0.23c0.21,0.37,0.43,0.74,0.64,1.1c-0.14,0.46-0.28,0.91-0.42,1.37c-0.37,0.21-0.74,0.43-1.1,0.64
			c0.07-0.02,0.14-0.04,0.21-0.06c-0.81-0.21-1.62-0.43-2.43-0.64c0.3,0.27,0.59,0.53,0.89,0.8c2.39,2.15,5.93-1.38,3.54-3.54
			c-1.05-0.94-2-1.86-3.53-1.38c-1.08,0.33-1.82,1.26-2.07,2.34c-0.6,2.65,2.06,4.48,4.43,4.6c2.66,0.13,3.84-2.18,3.93-4.5
			c0.1-2.44,0.07-4.9,0.1-7.34c0.02-1.23-0.96-2.31-2.17-2.46c-1.32-0.16-2.27,0.6-2.74,1.79c-0.36,0.9-1.78,2.81-2.64,1.77
			c-0.56-0.67-0.81-1.61-1.04-2.42c-0.21-0.78-0.6-1.89-0.18-2.65c-1.55-0.42-3.11-0.84-4.66-1.26c0.04,1.25-0.11,2.45-0.59,3.61
			c-0.23,0.55-0.54,1.09-0.89,1.57c-0.29,0.4-0.82,0.73-1.04,1.15c-0.1,0.06-0.2,0.12-0.3,0.18c0.7,0.27,1,0.25,0.87-0.06
			c0.02-0.14-0.18-0.35-0.23-0.47c-0.27-0.56-0.47-1.13-0.63-1.73c-0.34-1.32-0.4-2.71-0.14-4.05c0.59-3.12-3.95-4.47-4.82-1.33
			c-0.81,2.95-2.28,5.37-4.36,7.58c-0.08,0.08-0.41,0.18-0.42,0.21c0.07-0.25,0.47,0.42,0.56,0.26c0.04-0.07-0.06-0.83-0.06-0.89
			c-0.01-0.47-0.01-0.94-0.01-1.41c-0.01-1.88-0.01-3.75,0.01-5.63C299.1,221.36,294.1,221.36,294.08,224.58L294.08,224.58z"/>
	</g>
</g>
<g>
	<g>
		<path d="M325.64,226.47c0.08,0.46-0.03-0.47,0.02,0.19c0.01,0.19,0.02,0.39,0.03,0.58c0.01,0.49-0.01,0.98-0.04,1.47
			c-0.05,0.87-0.12,1.74-0.1,2.62c0.07,2.35,0.88,4.48,2.83,5.89c1.62,1.18,4.05,1.44,5.92,0.75c2.06-0.75,3.68-2.26,4.75-4.16
			c1.21-2.14,1.65-4.55,2.02-6.95c-1.64-0.22-3.27-0.44-4.91-0.66c-0.43,3.24,0.42,6.73,2.26,9.43c0.74,1.08,2.23,1.66,3.42,0.9
			c1.07-0.69,1.69-2.27,0.9-3.42c-0.39-0.58-0.72-1.18-1.02-1.81c0.1,0.2,0.1,0.26,0.01,0.02c-0.06-0.16-0.12-0.33-0.18-0.49
			c-0.11-0.33-0.2-0.67-0.28-1.01c-0.07-0.28-0.2-0.64-0.18-0.93c-0.03,0.52,0.02,0.09,0-0.07c-0.02-0.17-0.03-0.35-0.03-0.52
			c-0.03-0.7,0.01-1.4,0.1-2.09c0.16-1.23-1.08-2.31-2.17-2.46c-1.11-0.15-2.55,0.56-2.74,1.79c-0.17,1.13-0.35,2.27-0.63,3.39
			c-0.15,0.59-0.33,1.17-0.55,1.74c0.21-0.55-0.1,0.2-0.15,0.3c-0.09,0.17-0.18,0.33-0.28,0.5c-0.11,0.18-0.25,0.5-0.41,0.63
			c0.2-0.25,0.22-0.28,0.05-0.06c-0.08,0.1-0.16,0.19-0.25,0.28c-0.17,0.18-0.35,0.34-0.53,0.51c-0.39,0.37,0.35-0.19-0.08,0.05
			c-0.13,0.08-0.48,0.38-0.64,0.36c0.33-0.13,0.36-0.15,0.11-0.05c-0.11,0.04-0.22,0.07-0.33,0.1c-0.11,0.03-0.22,0.05-0.34,0.07
			c0.38-0.04,0.43-0.05,0.15-0.03c-0.2,0-0.4-0.01-0.6,0c-0.19-0.02-0.11,0,0.24,0.04c-0.11-0.02-0.22-0.04-0.33-0.07
			c-0.11-0.03-0.22-0.06-0.33-0.1c-0.26-0.1-0.21-0.08,0.13,0.06c-0.1-0.05-0.2-0.1-0.3-0.16c-0.22-0.15-0.19-0.12,0.09,0.1
			c-0.02,0-0.6-0.52-0.29-0.24c0.12,0.16,0.11,0.15-0.02-0.04c-0.07-0.1-0.13-0.2-0.18-0.31c-0.12-0.25-0.11-0.21,0.03,0.11
			c-0.04-0.11-0.08-0.22-0.11-0.34c-0.05-0.17-0.19-0.52-0.15-0.7c0.05,0.36,0.05,0.4,0.03,0.12c-0.01-0.09-0.01-0.19-0.02-0.28
			c-0.05-0.97,0.04-1.94,0.09-2.9c0.06-1.17,0.01-2.3-0.19-3.47c-0.22-1.29-1.88-2.13-3.08-1.75
			C325.99,223.84,325.4,225.08,325.64,226.47L325.64,226.47z"/>
	</g>
</g>
<g>
	<g>
		<path d="M341.91,226.4c-0.02,4.3,0.32,8.57,0.91,12.83c0.13,0.96,1.22,1.68,2.08,1.79c0.92,0.12,2.06-0.3,2.49-1.19
			c1.29-2.64,2.57-5.27,3.86-7.91c0.27-0.55,0.54-1.1,0.84-1.62c0.14-0.25,0.29-0.49,0.45-0.73c0.08-0.12,0.16-0.23,0.25-0.35
			c-0.3,0.4,0.01,0.01,0.08-0.07c0.09-0.1,0.19-0.2,0.28-0.29c0.04-0.04,0.35-0.34,0.13-0.14c-0.24,0.22,0.18-0.12,0.24-0.16
			c0.11-0.07,0.23-0.13,0.35-0.2c0.26-0.14,0.14-0.03-0.05,0.01c0.12-0.03,0.25-0.08,0.38-0.11c0.52-0.16-0.27-0.04,0.01-0.01
			c0.16,0.02,0.33,0,0.49,0.02c-0.59-1.42-1.18-2.85-1.77-4.27c-1.82,2.27-3.64,4.54-5.46,6.81c-0.57,0.72-0.9,1.5-0.64,2.43
			c0.21,0.76,0.91,1.62,1.75,1.75c1.1,0.17,2.08,0.08,3.11-0.32c0.06-0.02,1.07-0.42,1.09-0.36c-0.11,0.01-0.22,0.03-0.33,0.04
			c0.28,0,0.22-0.01-0.17-0.05c-0.09-0.04-0.17-0.09-0.26-0.13c0.23,0.14,0.22,0.12-0.05-0.07c0.04-0.02,0.37,0.39,0.39,0.42
			c0.42,0.47-0.28-0.4,0.14,0.18c0.27,0.36,0.52,0.74,0.77,1.12c0.24,0.38,0.47,0.78,0.68,1.18c0.12,0.23,0.24,0.47,0.36,0.71
			c0.04,0.09,0.36,0.82,0.16,0.34c0.5,1.2,1.68,2.2,3.08,1.75c1.16-0.38,2.28-1.78,1.75-3.08c-0.49-1.19-1.02-2.34-1.7-3.43
			c-0.6-0.95-1.26-1.96-2.09-2.73c-1.12-1.04-2.57-1.41-4.06-1.08c-0.41,0.09-0.79,0.25-1.18,0.4c-0.22,0.08-0.46,0.14-0.68,0.23
			c-0.28,0.06-0.23,0.06,0.15,0c-0.28,0-0.23,0.02,0.15,0.06c0.37,1.39,0.74,2.79,1.1,4.18c1.82-2.27,3.64-4.54,5.46-6.81
			c0.65-0.81,0.94-1.72,0.52-2.73c-0.41-0.96-1.27-1.45-2.28-1.54c-3.44-0.29-5.96,2.57-7.38,5.35c-1.46,2.87-2.83,5.79-4.25,8.68
			c1.52,0.2,3.05,0.4,4.57,0.6c-0.08-0.59,0.02,0.22-0.04-0.32c-0.03-0.25-0.06-0.49-0.09-0.74c-0.06-0.49-0.11-0.99-0.16-1.48
			c-0.1-0.99-0.18-1.98-0.25-2.98c-0.13-1.99-0.19-3.98-0.18-5.97c0-1.31-1.15-2.56-2.5-2.5C343.05,223.96,341.91,225,341.91,226.4
			L341.91,226.4z"/>
	</g>
</g>
<g>
	<g>
		<path d="M372.52,225.4c-0.8-1.4-1.93-2.75-3.53-3.24c-1.79-0.55-3.48,0.37-4.58,1.75c-1.87,2.37-3.24,5.16-3.8,8.14
			c-0.58,3.04-0.49,6.87,2.2,8.95c1.74,1.34,3.88,0.97,5.49-0.37c1.1-0.91,1.97-2.2,2.71-3.41c1.76-2.88,2.73-6.13,3.04-9.48
			c-1.64,0.22-3.27,0.44-4.91,0.66c1.01,3.25,2.18,6.46,3.48,9.61c0.5,1.2,1.68,2.2,3.08,1.75c1.16-0.37,2.28-1.78,1.75-3.08
			c-1.31-3.15-2.47-6.35-3.48-9.61c-0.37-1.19-1.49-1.96-2.74-1.79c-1.3,0.17-2.05,1.2-2.17,2.46c-0.01,0.09-0.13,1.04-0.06,0.56
			c-0.05,0.32-0.11,0.65-0.17,0.97c-0.13,0.64-0.3,1.28-0.5,1.9c-0.1,0.31-0.21,0.62-0.32,0.93c-0.06,0.15-0.12,0.31-0.18,0.46
			c0.09-0.22,0.08-0.19-0.04,0.08c-0.28,0.59-0.57,1.17-0.9,1.74c-0.33,0.56-0.69,1.1-1.07,1.63c0.26-0.35-0.2,0.25-0.21,0.26
			c-0.2,0.24-0.41,0.48-0.65,0.68c0.2-0.15,0.18-0.14-0.06,0.01c0.14-0.08,0.29-0.1,0.44-0.09c0.15,0.01,0.3,0.06,0.43,0.13
			c0.21,0.17,0.21,0.16,0-0.04c0.16,0.21,0.15,0.2-0.01-0.05c-0.08-0.13-0.15-0.26-0.22-0.4c0.22,0.45-0.1-0.37-0.13-0.48
			c-0.04-0.15-0.07-0.3-0.09-0.45c0.03,0.28,0.04,0.27,0.01-0.03c-0.01-0.32-0.03-0.63-0.02-0.94c0.01-0.32,0.03-0.63,0.07-0.95
			c-0.07,0.54,0.09-0.43,0.11-0.53c0.12-0.58,0.27-1.15,0.45-1.71c0.1-0.32,0.22-0.63,0.34-0.95c0.11-0.28,0.12-0.31,0.04-0.1
			c0.07-0.15,0.14-0.31,0.21-0.46c0.29-0.6,0.61-1.19,0.97-1.75c0.18-0.28,0.37-0.55,0.56-0.83c0.18-0.24,0.2-0.27,0.06-0.09
			c0.1-0.12,0.2-0.24,0.31-0.36c0.21-0.2,0.22-0.22,0.03-0.05c-0.15,0.1-0.31,0.15-0.48,0.16c-0.19,0.02-0.38-0.02-0.55-0.12
			c0.23,0.15,0.23,0.14-0.01-0.03c0.08,0.08,0.62,0.73,0.33,0.33c0.17,0.24,0.32,0.49,0.47,0.75c0.65,1.14,2.29,1.62,3.42,0.9
			C372.77,228.08,373.22,226.61,372.52,225.4L372.52,225.4z"/>
	</g>
</g>
<g>
	<g>
		<path d="M103.13,94.98c-4.83-2.17-9.9-1.88-14.99-0.91c-4.85,0.93-10.07,1.9-13.67,5.57c-3.43,3.5-5.33,8.46-6.7,13.08
			c-1.5,5.04-2.29,10.31-2.75,15.55c-0.45,5.16-0.38,10.58,1.36,15.52c1.54,4.38,4.28,8.24,7.74,11.31
			c7.54,6.7,17.66,9.64,27.15,12.4c4.95,1.44,10.17,2.54,15.35,1.98c4.52-0.49,8.85-1.93,12.81-4.17
			c8.23-4.68,14.32-12.39,18.06-20.99c1.96-4.52,3.4-9.21,4.37-14.04c0.88-4.41,1.52-8.94,1.32-13.45
			c-0.19-4.22-1.06-8.6-3.38-12.19c-2.78-4.3-7.16-6.45-11.73-8.38c-9.88-4.18-20.43-7.19-31.13-8.21
			c-9.8-0.93-20.05,0.79-27.71,7.36c-1.74,1.5-3.23,3.25-4.52,5.15c-1.81,2.67,2.52,5.17,4.32,2.52
			c4.67-6.87,13.05-9.94,21.07-10.25c9.64-0.37,19.52,2.09,28.59,5.17c4.35,1.48,8.94,3.07,12.88,5.47
			c3.15,1.92,5.02,4.89,5.92,8.41c1.95,7.63,0.12,16.34-2.09,23.72c-2.43,8.12-6.54,15.83-12.96,21.48
			c-6,5.28-13.73,8.25-21.74,7.38c-4.81-0.52-9.48-2.17-14.07-3.63c-4.36-1.38-8.71-2.85-12.75-5.02
			c-7.31-3.94-12.99-10.23-13.88-18.75c-0.47-4.57-0.05-9.26,0.62-13.79c0.7-4.68,1.76-9.36,3.57-13.74
			c1.53-3.69,3.64-7.27,7.57-8.73c2.07-0.77,4.28-1.19,6.44-1.64c2.13-0.44,4.27-0.82,6.44-0.87c2.03-0.05,4.11,0.17,5.98,1.01
			c1.23,0.55,2.69,0.35,3.42-0.9C104.65,97.33,104.37,95.54,103.13,94.98L103.13,94.98z"/>
	</g>
</g>
<g>
	<g>
		<path d="M68.22,117.9c2.61-4.74,8.11-6,13.14-5.71c1.49,0.09,2.95,0.3,4.41,0.56c1.51,0.28,3.12,0.53,4.39,1.45
			c1.99,1.44,3.59,3.81,4.7,5.96c1.06,2.06,1.72,4.63,0.61,6.8c-1.15,2.24-3.55,3.34-5.89,3.85c-2.99,0.65-6.21,0.59-9.25,0.49
			c-2.63-0.09-5.55-0.22-7.72-1.9c-2.19-1.7-3.8-4.67-4.64-7.27c-0.62-1.95-0.81-5.14,1.79-5.52c-1.05-0.8-2.11-1.61-3.16-2.41
			c-0.47,3.54-0.56,7.1-0.27,10.67c0.17,2.08,2.65,3.39,4.27,1.77c3.69-3.7,5.48-8.64,7.14-13.48c-1.61-0.44-3.21-0.89-4.82-1.33
			c-0.75,5.03-1.49,10.06-2.24,15.08c1.64,0.22,3.27,0.44,4.91,0.66c0.07-4.71,0.07-9.71,1.97-14.11c-1.55-0.42-3.11-0.84-4.66-1.26
			c0.16,5.73,0.04,11.45-0.37,17.17c-0.08,1.14,0.84,2.07,1.84,2.41c3.57,1.22,5.47-3.71,6.75-6.14c1.54-2.94,2.89-5.99,4.08-9.09
			c-1.64-0.22-3.27-0.44-4.91-0.66c-0.1,4.69-0.2,9.38-0.29,14.07c-0.06,2.74,4.49,3.51,4.91,0.66c0.81-5.47,1.62-10.94,2.43-16.41
			c-1.64-0.22-3.27-0.44-4.91-0.66c0.21,4.74,0.43,9.48,0.64,14.22c0.13,2.82,4.03,3.38,4.91,0.66c0.82-2.55,1.65-5.11,2.47-7.66
			c-1.61,0-3.21,0-4.82,0c1.2,3.55,2.2,7.17,3,10.83c0.26,1.2,1.58,1.97,2.74,1.79c1.3-0.2,2.04-1.18,2.17-2.46
			c0.46-4.65,0.91-9.3,1.37-13.96c-1.67,0-3.33,0-5,0c0.31,2.73,0.62,5.46,0.94,8.18c1.64-0.22,3.27-0.44,4.91-0.66
			c-0.2-0.88-0.41-1.76-0.61-2.64c-0.72-3.13-5.54-1.81-4.82,1.33c0.2,0.88,0.41,1.76,0.61,2.64c0.62,2.69,5.24,2.17,4.91-0.66
			c-0.31-2.73-0.62-5.46-0.94-8.18c-0.36-3.19-4.68-3.24-5,0c-0.46,4.65-0.91,9.3-1.37,13.96c1.64-0.22,3.27-0.44,4.91-0.66
			c-0.8-3.67-1.79-7.28-3-10.83c-0.79-2.34-4.05-2.4-4.82,0c-0.82,2.55-1.65,5.11-2.47,7.66c1.64,0.22,3.27,0.44,4.91,0.66
			c-0.21-4.74-0.43-9.48-0.64-14.22c-0.06-1.24-0.91-2.31-2.17-2.46c-1.11-0.13-2.56,0.55-2.74,1.79
			c-0.81,5.47-1.62,10.94-2.43,16.41c1.64,0.22,3.27,0.44,4.91,0.66c0.1-4.69,0.2-9.38,0.29-14.07c0.03-1.23-0.97-2.31-2.17-2.46
			c-1.31-0.16-2.28,0.6-2.74,1.79c-0.85,2.19-1.79,4.34-2.84,6.45c-0.52,1.04-1.06,2.07-1.62,3.09c-0.3,0.54-0.61,1.08-0.92,1.62
			c-0.16,0.27-0.31,0.53-0.47,0.8c-0.13,0.17-0.08,0.13,0.15-0.11c0.44,0,0.89,0,1.33,0c-0.1-0.03-0.2-0.07-0.3-0.1
			c0.61,0.8,1.22,1.61,1.84,2.41c0.4-5.71,0.53-11.44,0.37-17.17c-0.03-1.1-0.76-2.11-1.84-2.41c-0.98-0.27-2.39,0.15-2.82,1.15
			c-2.29,5.3-2.57,10.94-2.65,16.64c-0.02,1.23,0.96,2.31,2.17,2.46c1.11,0.13,2.56-0.55,2.74-1.79c0.75-5.03,1.49-10.06,2.24-15.08
			c0.46-3.13-3.76-4.44-4.82-1.33c-1.37,4.01-2.79,8.21-5.85,11.28c1.42,0.59,2.85,1.18,4.27,1.77c-0.29-3.56-0.21-7.12,0.27-10.67
			c0.24-1.8-1.78-2.61-3.16-2.41c-3.6,0.53-5.76,4.26-5.9,7.64c-0.14,3.61,1.71,7.39,3.72,10.29c2.12,3.07,4.97,5.27,8.67,6.04
			c3.92,0.81,8.19,0.74,12.16,0.42c3.82-0.31,7.57-1.24,10.48-3.87c2.86-2.59,3.88-6.32,3.26-10.06c-0.6-3.58-2.74-6.82-5.06-9.53
			c-1.16-1.36-2.52-2.67-4.15-3.46c-1.85-0.9-3.88-1.25-5.9-1.57c-4.28-0.68-8.8-0.94-12.95,0.51c-3.7,1.29-6.96,3.69-8.87,7.17
			C62.35,118.2,66.67,120.72,68.22,117.9L68.22,117.9z"/>
	</g>
</g>
<g>
	<g>
		<path d="M145.5,110.9c-3.22-2.88-7.33-3.96-11.58-3.95c-4.4,0-8.93,0.85-13.19,1.89c-2.35,0.57-4.63,1.34-6.84,2.31
			c-1.91,0.83-3.77,1.86-5.09,3.51c-2.96,3.71-1.85,8.93,0.65,12.57c5.34,7.77,14.81,10.34,23.8,10.18
			c4.48-0.08,9.27-0.47,13.12-2.99c3.45-2.26,5.98-5.65,7.34-9.53c0.73-2.08,1.1-4.43,0.93-6.64c-0.12-1.47-0.57-2.79-1.69-3.79
			c-0.94-0.84-2.12-1.47-3.2-2.12c-4.49-2.7-10.03-4.47-14.89-1.59c-2.77,1.64-0.25,5.96,2.52,4.32c2.95-1.75,6.37-0.4,9.09,1.15
			c0.82,0.47,1.62,0.97,2.41,1.48c0.82,0.52,0.75,0.29,0.78,1.12c0.04,1.51-0.2,2.96-0.66,4.4c-0.85,2.63-2.58,5.11-4.86,6.69
			c-2.88,2-6.35,2.34-9.76,2.47c-6.9,0.26-14.34-0.84-19.31-6.08c-1.79-1.89-4-5.2-2.78-7.91c0.58-1.29,2.09-1.98,3.29-2.54
			c1.65-0.78,3.4-1.35,5.16-1.84c3.82-1.05,7.87-1.83,11.84-2.02c3.28-0.16,6.83,0.16,9.39,2.45
			C144.35,116.58,147.9,113.06,145.5,110.9L145.5,110.9z"/>
	</g>
</g>
<g>
	<g>
		<path d="M115.8,117.32c0.03-0.08,0.05-0.15,0.08-0.23c-0.21,0.37-0.43,0.74-0.64,1.1c0.06-0.05,0.11-0.1,0.17-0.16
			c-0.37,0.21-0.74,0.43-1.1,0.64c-0.33-0.04-0.66-0.09-0.99-0.13c-0.3-0.3-0.6-0.6-0.9-0.9c-0.06-0.09,0.11,0.01,0.05,0.23
			c-0.13,0.48,0.01,1.2,0.02,1.7c0.01,1.05,0.03,2.11,0.04,3.16c0.02,2.05,2.79,3.45,4.27,1.77c2.39-2.73,4.74-5.5,7.05-8.3
			c-1.39-0.37-2.79-0.74-4.18-1.1c0.44,2.31,0.51,4.74,0.15,7.07c-0.21,1.33,0.34,2.69,1.75,3.08c1.26,0.35,2.78-0.42,3.08-1.75
			c0.48-2.13,1.28-4.01,2.48-5.83c-1.52-0.64-3.05-1.28-4.57-1.93c-1.02,4.98-2.17,9.93-3.47,14.85c-0.34,1.3,0.43,2.72,1.75,3.08
			c1.44,0.4,2.55-0.5,3.08-1.75c1.91-4.52,4.38-8.81,7.22-12.81c-1.55-0.42-3.11-0.84-4.66-1.26c0.32,3.45,0.18,6.89-0.52,10.28
			c-0.25,1.21,0.25,2.47,1.45,2.95c1.04,0.42,2.62,0.13,3.12-1.02c1.51-3.5,3.27-6.88,5.27-10.13c-1.55-0.42-3.11-0.84-4.66-1.26
			c0.3,2.47,0.07,4.8-0.76,7.14c-0.44,1.24,0.5,2.78,1.75,3.08c2.82,0.66,4.15-1.63,5.33-3.74c1.23-2.18,2.45-4.35,3.68-6.53
			c-1.55-0.42-3.11-0.84-4.66-1.26c0.33,3.54,0.09,7.02-0.81,10.46c-0.7,2.69,3.19,4.47,4.57,1.93c2.11-3.89,4.22-7.79,6.33-11.68
			c-1.55-0.42-3.11-0.84-4.66-1.26c0.25,3.65,0.35,7.3,0.3,10.96c-0.03,2.48,3.43,3.4,4.66,1.26c1.7-2.96,3.39-5.93,5.09-8.89
			c-1.55-0.42-3.11-0.84-4.66-1.26c0.32,2.57,0.35,5.18-0.08,7.74c-0.21,1.23,0.22,2.45,1.45,2.95c1.14,0.46,2.48,0.07,3.12-1.02
			c1.23-2.11,1.88-4.35,2.13-6.77c0.14-1.35-1.25-2.5-2.5-2.5c-1.46,0-2.36,1.15-2.5,2.5c-0.15,1.52-0.68,2.94-1.44,4.25
			c1.52,0.64,3.05,1.28,4.57,1.93c0.51-3.02,0.65-6.02,0.26-9.07c-0.14-1.11-0.68-2.09-1.84-2.41c-1.06-0.29-2.27,0.19-2.82,1.15
			c-1.7,2.96-3.39,5.93-5.09,8.89c1.55,0.42,3.11,0.84,4.66,1.26c0.05-3.66-0.05-7.31-0.3-10.96c-0.16-2.34-3.4-3.58-4.66-1.26
			c-2.11,3.89-4.22,7.79-6.33,11.68c1.52,0.64,3.05,1.28,4.57,1.93c1.01-3.84,1.36-7.83,0.99-11.79c-0.22-2.32-3.35-3.58-4.66-1.26
			c-0.87,1.54-1.74,3.09-2.61,4.63c-0.4,0.7-0.79,1.4-1.19,2.11c-0.23,0.4-0.53,0.84-0.71,1.26c-0.22,0.52-0.34,0.1,0.1,0.03
			c0.44,0,0.89,0,1.33,0c-0.09-0.02-0.19-0.04-0.28-0.07c0.58,1.03,1.16,2.05,1.75,3.08c0.96-2.71,1.29-5.62,0.94-8.47
			c-0.29-2.35-3.25-3.54-4.66-1.26c-2,3.25-3.75,6.63-5.27,10.13c1.52,0.64,3.05,1.28,4.57,1.93c0.79-3.83,1.06-7.72,0.7-11.61
			c-0.24-2.52-3.18-3.34-4.66-1.26c-3.12,4.37-5.64,9.06-7.73,14c1.61,0.44,3.21,0.89,4.82,1.33c1.3-4.92,2.46-9.87,3.47-14.85
			c0.57-2.78-2.97-4.34-4.57-1.93c-1.41,2.14-2.42,4.53-2.98,7.03c1.61,0.44,3.21,0.89,4.82,1.33c0.51-3.28,0.47-6.46-0.15-9.73
			c-0.34-1.76-3.02-2.51-4.18-1.1c-2.31,2.8-4.66,5.57-7.05,8.3c1.42,0.59,2.85,1.18,4.27,1.77c-0.02-1.3-0.03-2.59-0.05-3.89
			c-0.01-1.18,0.02-2.41-0.57-3.47c-1.41-2.56-5.04-2.04-5.93,0.61C109.96,119.05,114.79,120.36,115.8,117.32L115.8,117.32z"/>
	</g>
</g>
<g>
	<g>
		<path d="M98.69,154.95c3.78,1.45,8.09,0.56,11.53-1.38c3.41-1.93,6.08-4.89,8.64-7.78c0.9-1.01,0.99-2.54,0-3.54
			c-0.91-0.91-2.64-1.01-3.54,0c-2.17,2.45-4.41,5.02-7.13,6.7c-1.36,0.84-2.53,1.3-4.15,1.62c-0.42,0.08-1.23,0.1-1.91,0.08
			c-0.29-0.01-0.42-0.03-0.89-0.14c-0.42-0.1-0.83-0.23-1.24-0.39c-1.26-0.48-2.74,0.53-3.08,1.75
			C96.56,153.29,97.42,154.47,98.69,154.95L98.69,154.95z"/>
	</g>
</g>
<g>
	<g>
		<path d="M98.02,155.28c3.7,2.37,7.81,4.16,12.09,5.15c4.01,0.93,8.78,1.71,12.67-0.07c4.05-1.85,5.96-6.54,5.18-10.79
			c-0.71-3.85-3.68-7.12-7.44-8.19c-3.1-0.88-4.42,3.94-1.33,4.82c5.16,1.46,5.32,9.52-0.44,10.14c-3.09,0.34-6.46-0.42-9.4-1.3
			c-3.14-0.93-6.06-2.33-8.81-4.1C97.83,149.22,95.32,153.55,98.02,155.28L98.02,155.28z"/>
	</g>
</g>
<g>
	<g>
		<path d="M99.87,125.48c2.19-0.21,4.38-0.41,6.57-0.62c0.68-0.06,1.27-0.24,1.77-0.73c0.43-0.43,0.76-1.15,0.73-1.77
			c-0.03-0.65-0.24-1.32-0.73-1.77c-0.46-0.42-1.12-0.79-1.77-0.73c-2.19,0.21-4.38,0.41-6.57,0.62c-0.68,0.06-1.27,0.24-1.77,0.73
			c-0.43,0.43-0.76,1.15-0.73,1.77c0.03,0.65,0.24,1.32,0.73,1.77C98.57,125.17,99.22,125.54,99.87,125.48L99.87,125.48z"/>
	</g>
</g>
<g>
	<g>
		<path d="M111.84,167.13c-0.34,3.73-0.45,7.44,1.26,10.88c0.82,1.64,2,3.1,3.1,4.55c1.22,1.62,2.48,3.22,3.75,4.8
			c1.06,1.32,2.08,2.67,2.83,4.2c0.78,1.59,1.24,3.34,1.76,5.04c1.16,3.8,2.32,7.59,3.48,11.39c0.94,3.07,5.76,1.76,4.82-1.33
			c-1.14-3.72-2.27-7.44-3.41-11.16c-1.07-3.52-2.21-6.84-4.46-9.8c-2.2-2.89-4.63-5.63-6.63-8.67c-2.03-3.08-1.82-6.37-1.49-9.91
			c0.12-1.35-1.24-2.5-2.5-2.5C112.89,164.63,111.97,165.78,111.84,167.13L111.84,167.13z"/>
	</g>
</g>
<g>
	<g>
		<path d="M121.81,186.23c-8.99-0.31-18,0.05-26.93,1.14c-2.12,0.26-4.27,0.72-6.41,0.83c-1.84,0.09-2.95-1.38-4.19-2.53
			c-2.98-2.78-6.18-5.34-9.54-7.64c-3.77-2.58-7.77-4.82-11.93-6.7c-1.23-0.55-2.69-0.35-3.42,0.9c-0.63,1.07-0.34,2.86,0.9,3.42
			c7.51,3.38,14.44,7.93,20.47,13.55c1.49,1.39,2.93,2.89,4.89,3.6c2.19,0.79,4.55,0.2,6.77-0.11c4.51-0.63,9.06-1.05,13.61-1.3
			c5.26-0.29,10.53-0.34,15.79-0.15C125.03,191.34,125.02,186.34,121.81,186.23L121.81,186.23z"/>
	</g>
</g>
<g>
	<g>
		<path d="M62.76,172.7c4.42-7.22,2.17-15.77,1.22-23.59c-0.25-2.02-0.63-3.98-2.06-5.53c-1.24-1.34-3.01-2.03-4.73-2.48
			c-1.96-0.51-3.95-0.64-5.47,0.93c-1.17,1.22-1.54,3.01-1.6,4.64c-0.08,2.25,0.29,4.58,0.59,6.8c0.33,2.47,0.76,4.92,1.32,7.35
			c1.03-1.03,2.05-2.05,3.08-3.08c-1.41-0.33-2.81-0.66-4.22-0.99c-1.42-0.33-2.94-0.87-4.41-0.6c-3.01,0.55-4.13,3.97-3.72,6.67
			c0.39,2.58,2.24,4.74,4.78,5.42c2.69,0.73,6.75-0.47,6.57-3.86c-0.08-1.43-1.09-2.39-2.5-2.5c-3.5-0.28-7.16,1.75-8.7,4.93
			c-2.53,5.24,5.13,6.13,8.53,6.21c-0.22-1.64-0.44-3.27-0.66-4.91c-1.95,0.36-3.82,0.94-5.64,1.72c-1.55,0.66-3.51,1.42-4.48,2.88
			c-1.23,1.85-0.54,4.04,1.18,5.28c1.42,1.02,3.34,1.49,5,1.93c3.59,0.97,7.62,1.6,11.34,1.22c1.83-0.19,3.59-0.87,4.56-2.54
			c0.38-0.65,0.58-1.4,0.72-2.13c0.06-0.32,0.1-0.65,0.17-0.97c0.04-0.21,0.1-0.41,0.17-0.61c0.01,0.04,0.01,0.08,0.02,0.12
			c2.34-2.22-1.2-5.75-3.54-3.54c-0.86,0.81-1.31,1.87-1.53,3.02c-0.08,0.4-0.12,1.39-0.39,1.59c-0.28,0.21-0.95,0.12-1.27,0.13
			c-0.69,0.01-1.38,0-2.08-0.03c-1.39-0.06-2.78-0.21-4.15-0.46c-1.36-0.25-2.71-0.59-4.04-1c-0.66-0.21-1.31-0.47-1.97-0.68
			c0.11,0.04-0.27-0.17-0.25-0.17c0.77-0.03-0.77,1.97,0.14,1.74c0.56-0.14,1.18-0.66,1.71-0.91c0.53-0.26,1.08-0.48,1.63-0.69
			c1.31-0.48,2.65-0.82,4.02-1.07c2.85-0.52,2.06-4.84-0.66-4.91c-0.89-0.02-1.77-0.08-2.64-0.25c-0.44-0.09-0.87-0.19-1.3-0.3
			c-0.22-0.06-0.43-0.12-0.64-0.18c-0.53-0.17-0.56-0.18-0.11-0.04c0.21,0.37,0.43,0.74,0.64,1.1c-0.02-0.12-0.05-0.25-0.07-0.37
			c0,0.44,0,0.89,0,1.33c0.36-1.8,2.69-2.55,4.28-2.42c-0.83-0.83-1.67-1.67-2.5-2.5c-0.01,0-0.01,0-0.02,0
			c0.21-0.37,0.43-0.74,0.64-1.1c-0.33,0.4-1.17,0.16-1.57-0.2c-0.5-0.46-0.64-1.27-0.46-1.91c-0.01,0.05,0.15-0.45,0.16-0.39
			c0.17-0.24,0.07-0.22-0.3,0.07c-0.43,0.17-0.53,0.24-0.27,0.2c0.15,0.23,1.77,0.41,2.02,0.47c1.48,0.35,2.97,0.7,4.45,1.04
			c1.9,0.44,3.51-1.19,3.08-3.08c-0.91-4.02-1.66-8.21-1.73-12.35c-0.01-0.58,0.09-1.06,0.16-1.53c0.02-0.16,0.24-0.31-0.01-0.08
			c-0.31,0.29-0.33,0.14,0.24,0.29c1.23,0.32,2.69,0.57,3.18,1.9c0.29,0.79,0.33,1.67,0.43,2.49c0.14,1.18,0.31,2.36,0.49,3.54
			c0.3,2.01,0.62,4.02,0.76,6.05c0.25,3.58-0.01,7.25-1.92,10.38C56.76,172.93,61.09,175.44,62.76,172.7L62.76,172.7z"/>
	</g>
</g>
<g>
	<g>
		<path d="M125.31,189.41c4.29-0.13,8.59-0.11,12.88,0.08c2.65,0.12,5.95,0.22,8.02,2.11c1.12,1.03,1.55,2.48,1.95,3.9
			c0.51,1.81,1.01,3.57,1.85,5.26c0.85,1.71,1.96,3.26,3.12,4.77c1.07,1.41,2.12,3.06,3.8,3.81c1.23,0.56,2.69,0.35,3.42-0.9
			c0.63-1.07,0.34-2.86-0.9-3.42c-1.41-0.64-2.45-2.56-3.3-3.79c-1.03-1.48-1.96-3.04-2.51-4.77c-1.15-3.63-1.86-7.14-5.19-9.45
			c-2.82-1.95-6.42-2.34-9.75-2.51c-4.45-0.22-8.92-0.24-13.37-0.1C122.1,184.5,122.09,189.51,125.31,189.41L125.31,189.41z"/>
	</g>
</g>
<g>
	<g>
		<path d="M120.83,188.71c-0.72,3.23-1.19,6.53-1.38,9.84c-0.09,1.55-0.09,3.1-0.08,4.65c0.01,1.25,0.08,2.69-0.43,3.87
			c1.55,0.42,3.11,0.84,4.66,1.26c0.27-4.11,0.55-8.22,0.82-12.33c0.07-1.01,0.13-2.02,0.2-3.03c0.02-0.3,0.01-0.56,0.07-0.8
			c0,0.01,0.1-0.2,0.12-0.23c-0.21,0.29-0.09,0.05,0.1,0.06c-0.24-0.01,0.09,0,0.16,0.01c-0.24-0.04-0.03-0.02,0.13,0.04
			c-0.32-0.11,0.51,0.21,0.46,0.18c0.68,0.33,1.24,0.82,1.79,1.32c2.56,2.34,4.4,5.28,6.19,8.22c1.01,1.67,2.01,3.34,3.02,5
			c0.03,0.05,0.19,0.42,0.07,0.1c0.03,0.08,0.1,0.46,0.14,0.49c-0.19-0.14,0.34-1.07,0.15-0.82c0.02-0.02,1.14-0.72,1.16-0.68
			c-0.06-0.22-2.07-0.6-2.47-0.69c-4.32-0.92-8.87-0.63-13,0.97c0.64,1.52,1.28,3.05,1.93,4.57c1.51-0.87,3.49-1.17,5.35-1.51
			c2.06-0.38,4.1-0.89,5.88-2.04c1.55-1,1.68-3.34,0-4.32c-3.53-2.05-7.58-2.13-11.29-0.56c1.22,0.5,2.45,1,3.67,1.49
			c-0.64-3.37-0.86-6.8-0.73-10.23c-1.67,0-3.33,0-5,0c-0.01,2.07-0.02,4.14-0.03,6.21c1.55-0.42,3.11-0.84,4.66-1.26
			c-0.2-0.3-0.41-0.6-0.61-0.9c-0.95-1.39-3.48-1.85-4.32,0c-1.09,2.4-1.69,4.9-1.67,7.55c0.01,1.1,0.77,2.12,1.84,2.41
			c0.99,0.27,2.37-0.16,2.82-1.15c0.97-2.11,1.94-4.22,2.91-6.32c-1.52-0.2-3.05-0.4-4.57-0.6c0.28,1.77,0.55,3.55,0.83,5.32
			c0.19,1.21,1.64,1.96,2.74,1.79c1.32-0.2,2.02-1.18,2.17-2.46c0.32-2.74,0.4-5.49,0.24-8.25c-1.64,0.22-3.27,0.44-4.91,0.66
			c0.68,2.67,1.67,5.24,2.91,7.7c1.09,2.16,4.86,1.2,4.66-1.26c-0.25-3-0.83-5.95-1.87-8.78c-1.52,0.64-3.05,1.28-4.57,1.93
			c1.53,2.31,3.07,4.62,4.6,6.93c0.69,1.03,1.95,1.54,3.12,1.02c1.07-0.47,1.86-1.75,1.45-2.95c-0.91-2.64-2.23-4.97-3.99-7.13
			c-1.31-1.62-4.5-0.33-4.27,1.77c0.47,4.27,2.24,8.24,5.39,11.21c1.91,1.8,4.61-0.03,4.18-2.43c-0.36-1.96-0.87-3.89-1.55-5.77
			c-1.39,0.81-2.79,1.62-4.18,2.43c0.81,0.78,1.65,1.58,2.25,2.47c0.62,0.93,0.91,1.67,0.88,2.63c1.55-0.42,3.11-0.84,4.66-1.26
			c-2.39-3.09-4.5-6.39-6.29-9.86c-0.85-1.65-1.43-3.63-2.63-5.06c-1.55-1.84-4.2-1.86-5.89-0.18c-1.73,1.72-1.37,4.01-1.2,6.2
			c0.15,1.84,0.04,3.68-0.38,5.48c-0.44,1.88-1.72,3.85-1.01,5.8c0.94,2.58,4.03,2.11,6.16,1.73c1.13-0.2,2.37-0.51,3.2-1.36
			c1.03-1.07,1.27-2.69,0.5-3.97c-0.67-1.13-1.96-1.76-3.25-1.69c-1.32,0.06-2.38,0.88-3.18,1.86c-0.71,0.87-0.99,2-0.39,3.03
			c0.57,0.98,1.74,1.41,2.82,1.15c1.46-0.35,2.84-0.88,4.19-1.52c1.22-0.58,1.54-2.33,0.9-3.42c-0.73-1.25-2.2-1.48-3.42-0.9
			c-0.96,0.46-1.96,0.77-3,1.02c0.81,1.39,1.62,2.79,2.43,4.18c0.11-0.14,0.23-0.28,0.35-0.41c0.23-0.21,0.26-0.25,0.09-0.13
			c-1.67,0.44-2.04-0.56-1.12-3c-0.08,0.02-0.16,0.05-0.24,0.07c-0.71,0.06-1.4,0.33-2.12,0.38c-0.24,0.02-0.47,0.03-0.71,0.03
			c0.83,2.13,1.37,2.68,1.6,1.66c0.13-0.28,0.23-0.59,0.34-0.88c0.28-0.75,0.51-1.52,0.69-2.3c0.39-1.66,0.61-3.39,0.62-5.09
			c0.01-0.8-0.04-1.6-0.13-2.4c-0.04-0.41-0.11-0.81-0.13-1.22c-0.01-0.15,0.06-0.84,0.02-0.89c0.03,0.04-0.13,0.2-0.17,0.19
			c0.91,0.33-1.6,0.08-1.35-0.17c-0.02,0.02,0.86,1.79,0.89,1.86c0.68,1.47,1.41,2.91,2.19,4.32c1.56,2.81,3.34,5.49,5.31,8.04
			c0.69,0.89,1.65,1.47,2.82,1.15c1.08-0.3,1.81-1.31,1.84-2.41c0.1-3.53-2.18-6.32-4.6-8.63c-1.69-1.62-5.06-0.03-4.18,2.43
			c0.68,1.88,1.19,3.8,1.55,5.77c1.39-0.81,2.79-1.62,4.18-2.43c-2.16-2.03-3.62-4.83-3.93-7.67c-1.42,0.59-2.85,1.18-4.27,1.77
			c1.18,1.45,2.09,3.16,2.7,4.92c1.52-0.64,3.05-1.28,4.57-1.93c-1.53-2.31-3.07-4.62-4.6-6.93c-0.69-1.03-1.95-1.54-3.12-1.02
			c-1.06,0.47-1.88,1.76-1.45,2.95c0.88,2.4,1.48,4.9,1.69,7.45c1.55-0.42,3.11-0.84,4.66-1.26c-1.05-2.08-1.83-4.25-2.41-6.51
			c-0.69-2.68-5.08-2.2-4.91,0.66c0.16,2.76,0.08,5.51-0.24,8.25c1.64-0.22,3.27-0.44,4.91-0.66c-0.28-1.77-0.55-3.55-0.83-5.32
			c-0.32-2.07-3.7-2.48-4.57-0.6c-0.97,2.11-1.94,4.22-2.91,6.32c1.55,0.42,3.11,0.84,4.66,1.26c-0.02-1.72,0.27-3.45,0.99-5.03
			c-1.44,0-2.88,0-4.32,0c0.2,0.3,0.41,0.6,0.61,0.9c1.36,1.98,4.65,1.34,4.66-1.26c0.01-2.07,0.02-4.14,0.03-6.21
			c0.01-1.35-1.15-2.5-2.5-2.5c-1.4,0-2.45,1.15-2.5,2.5c-0.15,3.88,0.18,7.75,0.91,11.56c0.33,1.76,2.32,2.06,3.67,1.49
			c1.98-0.84,4.35-0.53,6.24,0.56c0-1.44,0-2.88,0-4.32c-1.56,1.01-3.35,1.29-5.28,1.64c-2.08,0.37-4.11,0.84-5.96,1.91
			c-1.07,0.62-1.52,2-1.02,3.12c0.46,1.04,1.77,1.9,2.95,1.45c4.04-1.56,8.17-1.68,12.3-0.44c1.27,0.38,2.63,0.51,3.81-0.23
			c1.14-0.72,1.73-2.02,1.66-3.35c-0.11-2.26-1.83-4.34-2.96-6.2c-2.26-3.73-4.53-7.62-7.76-10.61c-1.7-1.58-3.73-3.09-6.16-3.08
			c-2.61,0.01-4.76,1.87-5.15,4.43c-0.42,2.73-0.43,5.57-0.61,8.33c-0.19,2.84-0.38,5.69-0.57,8.53c-0.07,1.08,0.83,2.13,1.84,2.41
			c0.97,0.27,2.39-0.15,2.82-1.15c1.38-3.22,1.01-6.54,1.14-9.95c0.12-3.24,0.55-6.44,1.25-9.6c0.29-1.32-0.4-2.71-1.75-3.08
			C122.65,186.62,121.12,187.39,120.83,188.71L120.83,188.71z"/>
	</g>
</g>
<g>
	<g>
		<path d="M75.37,102.48c-0.14-2.47,0.31-5.02-0.48-7.41c-0.68-2.04-2.13-3.98-4.28-4.58c-4.77-1.33-8.51,3.24-8.65,7.61
			c-0.15,4.5,3.4,8.18,7.75,8.81c4.45,0.64,8.55-1.94,10.77-5.71c1.24-2.11,2.06-4.75,1.41-7.19c-0.62-2.33-2.76-4.2-5.22-4.11
			c-2.19,0.08-3.94,1.91-4.4,3.99c-0.49,2.24,0.36,4.56,2.34,5.8c1.91,1.19,4.44,1.2,6.41,0.13c2.12-1.15,3.48-3.4,4.08-5.67
			c1.21-4.59-0.55-10.86-6.13-11.17c-4.71-0.26-7.05,5.1-5.67,9.05c1.55,4.43,6.9,6.8,11.29,7.12c2.46,0.18,4.9-0.72,6.45-2.66
			c1.45-1.83,1.94-4.4,0.72-6.48c-1.06-1.82-3.44-2.91-5.5-2.43c-2.46,0.58-3.74,3-3.33,5.42c0.83,4.93,6.84,5.83,10.92,5.2
			c3.78-0.58,7.86-3.23,8.51-7.26c0.34-2.11-0.24-4.53-2.24-5.64c-2.13-1.18-4.65-0.05-5.69,2.01c-2.52,5.04,3.55,8.79,7.87,8.91
			c4.33,0.12,8.17-3.15,7.73-7.65c-0.19-1.95-1.1-3.9-2.84-4.94c-1.79-1.07-4.03-0.91-5.68,0.32c-3.26,2.43-3.63,7.54-0.66,10.34
			c3.29,3.11,8.44,2.52,11.86-0.01c1.92-1.42,3.43-3.19,4.91-5.05c-1.39-0.81-2.79-1.62-4.18-2.43c-0.52,2.34,0.17,4.57,1.78,6.33
			c1.54,1.68,3.81,2.44,5.99,2.79c2.26,0.36,4.97,0.85,6.84-0.85c1.57-1.43,2.01-4.04,0.64-5.75c-1.66-2.08-4.64-1.49-6.33,0.24
			c-1.41,1.44-1.91,3.59-1.66,5.54c0.59,4.56,5.08,6.87,9.29,7.07c5.19,0.25,10.27-3.65,9.05-9.22c-0.23-1.04-1.36-1.86-2.41-1.84
			c-4.56,0.1-6.34,5.92-3.27,8.98c3.34,3.33,8.25,1.5,10.9-1.67c0.86-1.04,1.02-2.52,0-3.54c-0.95-0.95-2.59-0.97-3.54,0
			c-3.09,3.16-2.59,8.95,1.24,11.33c3.97,2.47,9.7-0.46,10.33-5.01c0.39-2.81-2.82-4.3-4.57-1.93c-1.98,2.7-2.98,7.18-0.48,9.9
			c2.57,2.79,6.54,0.74,7.17-2.59c0.56-3-0.74-6.25-2.46-8.66c-1.78-2.5-4.14-4.56-6.88-5.94c-3.02-1.52-6.92-2.76-10.08-0.88
			c-2.7,1.61-3.76,5.78-1.58,8.24c2.31,2.59,6.44,1.52,7.96-1.37c1.74-3.32-0.36-7.19-3.35-8.91c-1.76-1.01-3.86-1.51-5.83-1.9
			c-2.02-0.4-4.11-0.58-6.06,0.19c-3.24,1.27-5.54,5.78-3.18,8.86c1.77,2.3,4.96,0.94,4.57-1.93c-0.44-3.23-2.45-6.17-5.19-7.89
			c-2.7-1.69-7.29-2.34-9.09,1.01c-1.72,3.19,1.64,7.97,5.21,5.72c3.21-2.02,1.92-7-0.12-9.37c-2.24-2.61-6.62-2.74-8.61,0.28
			c-2.25,3.42,0.79,7.34,4.2,8.3c1.8,0.5,3.73,0.16,4.99-1.29c1.29-1.49,1.21-3.5,0.43-5.21c-1.39-3.04-4.94-5.09-8.1-5.81
			c-3.77-0.86-8.16,0.32-10.16,3.86c-1.84,3.25-0.97,7.43,2.1,9.55c1.38,0.95,3.23-0.05,3.67-1.49c1.19-3.87-0.89-7.9-4.18-9.99
			c-3.51-2.23-8.24-2.44-12.27-2.37c-2.04,0.03-4.23,0.19-5.8,1.66c-1.45,1.36-1.86,3.41-1.51,5.3c0.77,4.22,4.85,5.77,8.6,6.39
			c1.23,0.2,2.08-0.18,2.82-1.15c2.68-3.52-0.89-8.58-4.94-8.32c-5.15,0.33-6.93,5.58-7.51,9.89c-0.14,1,0.06,2.35,1.15,2.82
			c3.47,1.5,6.95-0.7,7.9-4.25c0.89-3.3-1.06-6.9-4.02-8.44c-2.93-1.52-6.49-1.06-8.72,1.46c-2.27,2.55-2.74,6.1-1.32,9.17
			c0.88,1.9,3.31,1.33,4.32,0c2.45-3.23-0.12-8.09-3.71-9.08c-4.21-1.16-8.1,2.59-9.25,6.35c-0.77,2.53,0.9,5,3.62,4.95
			c2.14-0.04,3.81-1.79,4.36-3.75c1.29-4.67-3.98-7.53-7.85-5.79c-3.76,1.69-5.12,6.77-4.33,10.53c0.95,4.58,6.22,6.31,9.72,3.2
			c3.19-2.84,3.24-8.95,0.23-11.95c-1.56-1.56-4.15-2.07-6.08-0.88c-2.02,1.25-2.59,3.86-2.14,6.05c0.45,2.2,2.09,4.2,4.1,5.18
			c2.29,1.12,4.81,0.97,7.1-0.07c4.77-2.17,6.63-7.43,7.56-12.22c-1.03,0.58-2.05,1.16-3.08,1.75c2.16,0.54,4.01,1.85,6.08,2.65
			c2.02,0.78,4.37,1.1,6.44,0.32c3.7-1.41,5.85-6.94,2.38-9.81c-1.62-1.35-4.24-0.53-4.27,1.77c-0.06,4.23,5.36,6.04,8.86,6
			c2.08-0.03,4-0.9,5.16-2.66c1.08-1.64,1.3-3.87,0.16-5.54c-1.28-1.88-3.78-1.42-4.57,0.6c-1.21,3.08-0.11,6.52,1.95,8.96
			c2.22,2.63,5.53,3.69,8.84,4.08c3,0.35,7.56,1.01,9.18-2.25c1.57-3.16,0.19-7.34-2.19-9.69c-1.16-1.14-3.09-0.88-3.93,0.51
			c-2.75,4.56,0.46,11.89,6.24,11.54c3.79-0.23,4.94-3.97,4.41-7.18c-0.51-3.1-2.36-5.7-4.86-7.52c-1.36-0.99-3.24,0.09-3.67,1.49
			c-0.96,3.11-0.6,6.78,1.33,9.46c2.04,2.83,5.48,4.27,8.93,3.53c3.18-0.68,5.52-3.23,5.96-6.43c0.42-3.05-0.81-6.24-3.53-7.82
			c-1.16-0.68-2.74-0.27-3.42,0.9c-3.02,5.21-2.63,12.11,1.59,16.56c1.96,2.06,4.62,3.41,7.44,3.75c1.38,0.17,2.89,0.18,4.15-0.49
			c1.54-0.82,2.14-2.47,2.26-4.11c0.22-3.01-0.63-6.19-2.09-8.81c-0.7-1.25-1.6-2.7-2.85-3.46c-1.69-1.03-3.7-0.34-4.8,1.17
			c-1.63,2.25-1.61,5.62-1.06,8.23c0.56,2.7,2.06,5.31,4.22,7.03c2.54,2.03,6.33,2.98,9.14,0.9c2.48-1.83,3.67-5.62,1.77-8.29
			c-1.21-1.7-3.94-1.6-4.57,0.6c-0.63,2.22-0.6,4.75,0.78,6.7c1.24,1.75,3.54,2.8,5.68,2.25c4.27-1.09,4.65-7.61,0.29-8.86
			c-1.17-0.34-2.15,0.26-2.82,1.15c-1.33,1.75-2.06,3.88-2.22,6.07c-0.14,1.9,0.1,4.35,1.57,5.73c1.69,1.59,4.24,1.26,5.75-0.4
			c1.71-1.88,1.33-4.42,0.47-6.58c-0.81-2.05-3.27-2.44-4.57-0.6c-1.22,1.73-1.93,4-1.4,6.11c0.5,1.98,2.06,3.69,4.07,4.16
			c4.32,0.99,7.28-4.47,4.3-7.63c-2.21-2.35-5.74,1.2-3.54,3.54c-0.18-0.19-0.18-0.51-0.17-0.73c-0.03,0.61-0.14,0.15,0.02,0.1
			c0.8-0.25,0.41,0.01,0.39-0.24c0-0.02-0.14-0.15-0.17-0.2c-0.12-0.21-0.11-0.66-0.07-0.87c0.11-0.63,0.52-1.21,0.88-1.72
			c-1.52-0.2-3.05-0.4-4.57-0.6c0.12,0.29,0.4,1.82,0.62,1.95c-0.11-0.06,1.77-0.6,1.52,0.11c0.01-0.03-0.13-0.88-0.13-0.92
			c-0.11-1.78,0.49-3.36,1.56-4.76c-0.94,0.38-1.88,0.77-2.82,1.15c-0.23-0.1-0.41-0.27-0.55-0.49c0.14,0.23,0.16,0.28,0.08,0.14
			c-0.05-0.06-0.07-0.14-0.06-0.22c-0.01,0.28-0.01,0.34,0,0.18c0.02-0.04,0.32-0.43,0.32-0.44c0,0.12-0.53-0.6-0.53-0.62
			c-0.24-0.69-0.06-1.46,0.14-2.13c-1.52,0.2-3.05,0.4-4.57,0.6c0.28,0.4,0.34,0.42,0.19,0.9c-0.12,0.39-0.3,0.69-0.66,0.9
			c-1.1,0.63-2.78-0.51-3.61-1.38c-1.06-1.11-1.69-2.59-1.95-4.09c-0.13-0.75-0.15-1.54-0.06-2.29c0.04-0.33,0.09-0.66,0.19-0.98
			c0.08-0.12,0.11-0.25,0.1-0.38c0.39-0.56,0.14-0.47-0.75,0.27c-0.42-0.11-0.84-0.23-1.26-0.34c0.87,0.37,1.59,2.05,1.95,2.93
			c0.46,1.12,0.78,2.37,0.85,3.59c0.01,0.17-0.09,1.54-0.01,1.58c0.19,0.12,0.42-0.33,0.43-0.32c0,0.01-0.8,0.02-0.76,0.02
			c-1-0.02-1.99-0.31-2.87-0.78c-4.4-2.35-5.3-7.97-2.91-12.1c-1.14,0.3-2.28,0.6-3.42,0.9c0.88,0.51,1.3,1.72,1.14,2.84
			c-0.17,1.15-1.07,2.16-2.53,2.3c-3.66,0.35-4.84-4-3.95-6.86c-1.22,0.5-2.45,1-3.67,1.49c1.12,0.81,1.93,2.08,2.31,3.4
			c0.19,0.65,0.22,1.22,0.23,1.89c0,0.09-0.1,0.41-0.13,0.35c0.08-0.16,0.2-0.23,0.36-0.24c-0.09,0.03-0.18,0.03-0.27-0.01
			c-0.65-0.4-1.2-0.61-1.55-1.43c-0.42-0.99-0.41-1.76,0.1-2.6c-1.31,0.17-2.62,0.34-3.93,0.51c0.62,0.61,1.05,1.3,1.24,2.17
			c0.09,0.42,0.13,0.82,0.1,1.25c0.02,0.16-0.01,0.31-0.07,0.46c-0.05,0.24,0.09,0.15,0.41-0.29c0.01,0.16-5.17-0.19-5.7-0.29
			c-3.06-0.59-6.81-3-5.39-6.61c-1.52,0.2-3.05,0.4-4.57,0.6c0.34,0.5,0.06,0.16,0.1-0.01c-0.05,0.23-0.14,0.36-0.26,0.46
			c-0.29,0.24-0.92,0.25-1.41,0.2c-0.85-0.09-1.85-0.37-2.64-0.71c0.06,0.03-0.68-0.31-0.56-0.27c-0.54-0.19-0.08-0.26-0.09,0
			c-1.42,0.59-2.85,1.18-4.27,1.77c0.34,0.28,0.13-0.06,0.31,0.33c-0.04-0.09-0.08-0.36-0.06-0.06c0.02,0.43,0,0.5-0.2,0.84
			c-0.14,0.24-0.24,0.35-0.4,0.42c-0.52,0.22-1.1,0.25-1.65,0.18c-1.29-0.15-2.47-0.81-3.6-1.39c-1.43-0.73-2.87-1.44-4.43-1.83
			c-1.24-0.31-2.81,0.39-3.08,1.75c-0.6,3.07-1.39,6.9-4.26,8.7c-1.02,0.64-2.24,1.02-3.37,0.45c-0.46-0.24-0.83-0.59-1.11-1.02
			c-0.17-0.26-0.3-0.53-0.35-0.84c-0.01-0.1,0.05-0.48,0.01-0.56c0.32,0.78-0.2-1.14-0.08-0.1c0,0.04-0.16,0.07-0.15,0.14
			c0.08,0.37,0.51,0.83,0.62,1.27c0.26,1.06,0.34,2.81-0.67,3.56c-2.01,1.51-1.47-3.03-1.08-4.03c0.22-0.55,0.56-1.18,1.08-1.49
			c0.43-0.25,0.6-0.17,1-0.1c-0.16-0.03,0.27,0.24,0.13,0.09c-0.23-0.23,0.15-0.21-0.07-0.12c-0.08,0.03-0.03,0.3-0.13,0.26
			c0.05,0.03,0.69-0.26,0.77-0.21c0.3,0.3,0.6,0.6,0.9,0.9c0.29,0.41-0.08,0.62,0.26,0.18c0.12-0.16,0.2-0.37,0.29-0.55
			c0.23-0.4,0.47-0.75,0.79-1.08c0.5-0.52,1.11-0.95,1.85-0.92c-0.23-0.01,0.13,0.04,0.19,0.06c-0.2-0.08,0.18,0.12,0.19,0.13
			c0.07,0.05,0.35,0.36,0.43,0.49c0.04,0.06,0.25,0.57,0.17,0.34c0.02,0.05,0.1,0.43,0.06,0.18c0.04,0.21-0.1,0.35,0.03,0.12
			c0.04-0.07-0.27,0.41-0.3,0.44c1.44,0,2.88,0,4.32,0c-0.8-1.74,0.83-4.58,2.9-3.9c1,0.33,2.01,1.31,2.08,2.42
			c0.03,0.42-0.12,0.89-0.41,1.25c-0.25,0.3-0.63,0.32-0.2,0.5c0.38,0.94,0.77,1.88,1.15,2.82c0.26-1.89,0.4-4.83,2.23-5.96
			c0.27-0.17,0.51-0.25,0.82-0.28c0.06,0,0.16,0.03,0.26,0.15c0.13,0.15,0.18,0.24,0.21,0.52c-0.03-0.27-0.05-0.08-0.21,0.14
			c0.94-0.38,1.88-0.77,2.82-1.15c-1.63-0.27-4.69-0.51-5.04-2.57c-0.1-0.58-0.13-0.65,0.5-0.82c1.18-0.32,2.63-0.16,3.84-0.12
			c2.4,0.07,5.14,0.2,7.3,1.37c1.68,0.91,3.01,2.68,2.41,4.65c1.22-0.5,2.45-1,3.67-1.49c-0.52-0.36-0.67-1.35-0.55-1.98
			c0.19-1.08,1.13-1.85,2.19-2.19c1.3-0.42,2.7-0.18,3.95,0.33c1.21,0.49,2.64,1.24,3.36,2.37c0.05,0.08,0.22,0.54,0.27,0.57
			c0.14,0.08-0.1,0.08,0.16-0.28c0.18-0.25,0.32-0.23,0.22-0.39c-0.09-0.15-0.64-0.29-0.81-0.41c-0.15-0.11-0.36-0.46-0.51-0.53
			c-0.2-0.1-0.03-0.1-0.07,0.15c-0.03,0.25-0.27,0-0.03,0.07c-0.05-0.01,0.43-0.05,0.24-0.08c-0.02,0,0.29,0.08,0.51,0.33
			c0.39,0.43,0.64,1.17,0.73,1.72c0.02,0.13,0,0.56,0.02,0.61c-0.14-0.26,2.32-0.18,2.29-0.23c0.15,0.28-0.2,0.73-0.13,0.84
			c-0.02-0.03,1.36,0.23,1.51,0.3c0.67,0.29,1.25,0.72,1.76,1.23c1.13,1.13,1.68,2.53,1.9,4.09c1.52-0.64,3.05-1.28,4.57-1.93
			c-0.09-0.12-0.34-0.69-0.26-0.36c-0.02-0.08,0.01-0.24,0.09-0.44c0.11-0.29,0.37-0.66,0.7-0.83c1.48-0.77,3.69,0.04,5.18,0.43
			c1.42,0.37,3.47,0.87,3.96,2.48c0.09,0.3,0.01,0.7-0.01,0.72c-0.12,0.18-0.27,0.15-0.27,0.18c-0.03,0.22-0.23-0.06-0.03-0.01
			c-0.12-0.03,0.45,0.18,0.54,0.2c0.3,0.07-0.18,0.35,0.08-0.05c-0.14,0.22,0.09-0.33,0.03-0.16c0.18-0.45,0.48-0.64,1.13-0.69
			c1.46-0.11,3.05,0.58,4.32,1.24c2.75,1.42,5.23,3.68,6.35,6.63c0.31,0.81,0.56,1.57,0.5,2.3c-0.02,0.21-0.07,0.48-0.08,0.48
			c0.26,0.03,0.6-0.3,0.97-0.22c0.34,0.08,0.43,0.47,0.47,0.23c-0.02,0.1-0.11-0.35-0.1-0.27c-0.02-0.24-0.08-0.53-0.04-0.84
			c0.12-1.08,0.63-2.02,1.26-2.88c-1.52-0.64-3.05-1.28-4.57-1.93c-0.13,0.92-0.43,1.52-1.21,1.95c-0.64,0.36-1.23,0.42-1.78,0.07
			c-0.99-0.64-1.06-2.63-0.23-3.48c-1.18-1.18-2.36-2.36-3.54-3.54c-0.74,0.89-2.25,2.58-3.55,1.88c-0.08-0.04-0.24-0.17-0.3-0.2
			c-0.08-0.05-0.17-0.45-0.12-0.2c0.01,0.06,0.17-0.34,0.17-0.43c0,0.1-0.22,0.18-0.3,0.18c-0.8-0.61-1.61-1.22-2.41-1.84
			c0.48,2.2-2.41,2.95-4.03,2.91c-1.76-0.05-4.35-0.87-4.55-2.73c-0.05-0.44-0.03-0.78,0.16-1.18c-0.03,0.06,0.32-0.49,0.28-0.34
			c-0.69,3.18-1.68-0.91-1.58-1.21c0.07-0.12,0.14-0.25,0.22-0.37c0.32-0.15,0.35-0.18,0.08-0.09c-0.34-0.14-1.1,0-1.51-0.05
			c-1.45-0.18-5.57-0.72-5.04-3.08c0.5-2.21-2.5-4.53-4.18-2.43c-1.56,1.95-3.25,4.3-5.62,5.33c-1.35,0.59-3.44,0.7-4.42-0.62
			c-0.25-0.34-0.28-0.9-0.25-1.08c0.07-0.47,0.2-0.76,0.34-0.98c0.08-0.12,0.46-0.57,0.37-0.42c-0.13,0.2,0.05-0.02,0.02-0.03
			c-0.16-0.08,0.22,0.22,0.04,0c-0.17-0.22,0.21,0.16,0.15,0.09c0.28,0.34,0.43,0.92,0.36,1.51c-0.02,0.18-0.1,0.47-0.2,0.66
			c-0.13,0.24-0.28,0.41-0.67,0.65c-0.73,0.45-1.66,0.49-2.49,0.36c-0.82-0.13-1.8-0.47-2.42-1.05c-0.05-0.05-0.68-0.69-0.43-0.64
			c0,0-0.65,0.37-0.92,0.3c-0.87-0.23-0.29-0.19-0.56-0.41c-0.25-0.2,0.09,0.3,0.06,0.03c0.05,0.4,0.05,0.49-0.02,0.78
			c-0.16,0.62-0.71,1.34-1.26,1.79c-1.53,1.26-3.75,1.59-5.67,1.39c-0.69-0.07-1.69-0.19-2.28-0.65c0.11,0.09-0.77-0.69-0.42-0.71
			c0.35-0.01-0.51,0.47-0.5,0.46c-0.29,0.28,0.15-0.23,0.12,0.05c0.01-0.08,0.11,0.11,0.1,0.1c-0.21-0.27,0.02-0.1-0.06,0.13
			c-0.26,0.7-0.71,1.15-1.46,1.34c-2.01,0.51-4.94-0.68-6.54-1.88c-1.32-0.99-2.18-2.78-1.21-4.01c0.11-0.14,0.33-0.3,0.77-0.19
			c0.92,0.23,1.34,1.4,1.46,2.21c0.24,1.63-0.28,4.77-2.16,5.33c-0.58,0.17-0.97,0.03-1.25-0.31c0.22,0.27,0.06-0.17,0.02-0.02
			c0-0.02,0.08-0.5,0.15-0.45c0.03,0.02-0.32,0.2-0.3,0.13c0-0.02-0.1,0.01-0.1,0.03c0.07-0.23,0.28,1.14,0.28,1.02
			c-0.03,1.13-0.63,2.26-1.24,3.19c-1.18,1.79-3.27,3.22-5.5,2.86c-1.74-0.28-3.25-1.66-3.41-3.26c-0.09-0.94,0.1-1.86,0.65-2.61
			c0.27-0.38,1-1.04,1.66-0.81c0.71,0.26,0.98,1.55,1.06,2.21c0.22,1.63-0.06,3.32,0.04,4.96C70.56,105.68,75.56,105.7,75.37,102.48
			L75.37,102.48z"/>
	</g>
</g>
<g>
	<g>
		<path d="M151.73,106.08c-4.02,2.64-0.45,8.98,3.88,6.62c1.84-1,2.64-3.14,2.16-5.14c-0.53-2.27-2.41-3.94-4.79-3.2
			c-4.15,1.28-4.74,7.01-1.13,9.27c3.78,2.38,7.93-0.76,8.19-4.8c0.07-1.05-0.82-2.18-1.84-2.41c-4.52-1.04-8.56,3.38-7.39,7.81
			c0.36,1.35,1.77,2.04,3.08,1.75c2.2-0.5,3.28-2.73,2.8-4.83c-0.39-1.69-3.01-2.59-4.18-1.1c-1.78,2.27-3.07,7.05,0.72,8.21
			c1.35,0.41,2.93-0.09,3.88-1.11c1.33-1.43,1.22-3.35,0.95-5.14c-0.27-1.75-2.38-2.08-3.67-1.49c-2.94,1.32-3.73,4.87-3.38,7.78
			c0.21,1.69,0.61,3.33,0.62,5.04c0.01,1.62-0.27,3.15-0.75,4.7c0.38-0.5,0.77-1,1.15-1.49c-1.95,0.9-2.68,2.99-2.92,4.98
			c-0.24,1.99-0.07,4.16,1.86,5.26c1.72,0.98,4.08,0.47,5.39-0.95c1.67-1.81,1.45-4.33,1.11-6.58c-0.25-1.63-2.42-2.24-3.67-1.49
			c-2.11,1.25-3.7,3.35-4.16,5.78c-0.32,1.7,0.13,3.1,1.77,3.86c1.16,0.54,2.56,0.4,3.66-0.23c2.55-1.47,2.37-4.34,2.41-6.88
			c0.04-2.77,0.56-5.44,1.46-8.05c0.67-1.95-1.34-3.4-3.08-3.08c-2.54,0.48-3.46,3.45-2.35,5.55c1.19,2.27,4.61,1.12,4.66-1.26
			c0.06-2.61,0.12-5.22,0.17-7.83c0.07-3.23-4.82-3.2-5,0c-0.25,4.57-0.51,9.14-0.76,13.71c-0.06,1,0.04,2.15-0.18,3.13
			c-0.07,0.16-0.04,0.12,0.09-0.12c-0.15,0.16-0.32,0.31-0.49,0.46c-0.26,0.24-0.53,0.45-0.78,0.71c-1.44,1.54-2.16,3.58-2.17,5.68
			c0,1.23,0.95,2.31,2.17,2.46c1.1,0.13,2.57-0.55,2.74-1.79c0.13-0.91,0.26-1.81,0.38-2.72c0.19-1.34-0.33-2.69-1.75-3.08
			c-1.33-0.37-2.68,0.45-3.08,1.75c-0.37,1.23-0.54,2.52-0.48,3.81c0.16,3.24,4.74,3.19,5,0c0.14-1.7-0.02-3.37-0.39-5.03
			c-0.49-2.24-3.44-2.27-4.57-0.6c-1.43,2.12-2.14,4.61-2.17,7.16c-0.03,1.93,2.13,3.07,3.76,2.16c2.24-1.25,3.67-3.86,3.33-6.43
			c-0.13-1.01-0.52-1.88-1.54-2.28c-0.88-0.35-2.07-0.24-2.73,0.52c-1.19,1.37-2.35,2.89-2.4,4.8c-0.04,1.72,0.84,3.45,2.37,4.26
			c3.55,1.89,7.37-3.23,4.29-5.94c-0.82-0.72-2.05-1-3.03-0.39c-2.63,1.65-4.02,4.79-3.3,7.85c0.72,3.06,3.45,5.08,6.49,5.33
			c0.81,0.07,1.81-0.51,2.16-1.24c0.81-1.67,1.09-3.52,0.44-5.3c-0.82-2.28-3.19-3.12-5.19-1.63c-2.63,1.97-4.03,5.51-3.67,8.75
			c0.22,1.99,2.66,3.5,4.27,1.77c2.36-2.55,3.26-6.31,2.01-9.6c-0.63-1.67-2.79-2.58-4.18-1.1c-1.47,1.57-2.49,3.49-2.78,5.63
			c-0.17,1.24,0.19,2.44,1.45,2.95c1.13,0.46,2.49,0.08,3.12-1.02c1.78-3.13,2.19-6.93,0.98-10.34c-0.74-2.07-3.34-2.44-4.57-0.6
			c-1.59,2.37-2,5.15-1.53,7.93c0.34,2.02,3.74,2.53,4.57,0.6c0.93-2.18,0.99-4.45-0.32-6.51c-0.9-1.41-3.53-1.83-4.32,0
			c-1.59,3.72-2.37,7.65-2.05,11.7c0.18,2.34,3.37,3.57,4.66,1.26c0.22-0.4,0.45-0.8,0.67-1.2c-1.52-0.64-3.05-1.28-4.57-1.93
			c-0.82,4.2-0.2,8.46,1.96,12.17c1.16,2,3.83,1.33,4.57-0.6c0.82-2.13,1.53-4.5,0.89-6.78c-0.53-1.9-2.09-3.56-4-4.1
			c-5.36-1.51-6.87,5.43-7.31,9.25c-0.14,1.22,1.06,2.32,2.17,2.46c1.24,0.15,2.38-0.57,2.74-1.79c0.9-2.99,1-6.03,0.46-9.09
			c-0.32-1.84-2.99-2.42-4.18-1.1c-2.34,2.59-4.04,5.57-5.08,8.9c-0.85,2.71,3.18,4.39,4.57,1.93c0.48-0.85,0.74-1.76,0.68-2.74
			c-0.13-2.26-2.59-3.17-4.27-1.77c-1.46,1.22-2.68,2.64-3.76,4.2c1.52,0.64,3.05,1.28,4.57,1.93c0.8-2.92-2.38-5.33-5.01-3.84
			c-2.18,1.23-3.07,4.04-3.13,6.4c-0.07,2.77,4.33,3.46,4.91,0.66c0.45-2.16,1.73-5.13-0.63-6.57c-1.97-1.2-4.3-0.07-5.44,1.68
			c-0.4,0.61-0.64,1.25-1.15,1.77c-0.6,0.6-1.36,1.02-1.99,1.6c-1.58,1.46-2.44,3.55-1.87,5.68c0.6,2.22,4.44,2.54,4.82,0
			c0.43-2.83-1.34-5.78-4.49-5.67c-2.93,0.1-4.63,3.13-4.04,5.79c0.34,1.54,2.36,2.34,3.67,1.49c2.52-1.62,2.65-5.57-0.06-7.12
			c-3.07-1.74-6.7,1.79-5.56,4.95c1.03-1.03,2.05-2.05,3.08-3.08c-2.11-0.53-4.57,0.73-4.89,3.03c-0.24,1.76,0.65,2.94,2.41,3.16
			c3.08,0.4,6.21-0.09,9.07-1.3c1.32-0.56,2.74-1.21,3.69-2.33c1.28-1.51,1.26-3.25,0.05-4.77c0,1.18,0,2.36,0,3.54
			c1.99-2,4.09-3.94,5.96-6.06c1.78-2.01,3.19-4.35,3.1-7.12c-1.55,0.42-3.11,0.84-4.66,1.26c1.2,1.66,3.28,2.27,5.1,1.12
			c1.76-1.12,2.11-3.21,1.88-5.14c-0.61,0.8-1.22,1.61-1.84,2.41c3.33-1.35,5.62-4.56,5.33-8.25c-0.13-1.59-1.5-2.88-3.16-2.41
			c-2.34,0.65-3.22,3.18-2.16,5.26c0.46,0.9,1.85,1.53,2.82,1.15c2-0.78,3.5-2.55,3.26-4.82c-0.29-2.74-3.98-3.47-4.91-0.66
			c-1.52,4.61-5.52,7.85-9.19,10.77c-2.14,1.7-4.29,3.37-6.44,5.05c-1.67,1.3-3.83,3.7-6.11,3.57c-1.13-0.06-2.07,0.83-2.41,1.84
			c-0.21,0.62-0.42,1.24-0.62,1.87c-0.42,1.25,0.48,2.78,1.75,3.08c1.2,0.29,2.4,0.57,3.61,0.86c3.13,0.74,4.46-4.08,1.33-4.82
			c-1.2-0.29-2.4-0.57-3.61-0.86c0.58,1.03,1.16,2.05,1.75,3.08c0.21-0.62,0.42-1.24,0.62-1.87c-0.8,0.61-1.61,1.22-2.41,1.84
			c3.24,0.18,5.72-1.97,8.11-3.84c2.53-1.98,5.07-3.95,7.59-5.94c4.57-3.61,8.98-7.59,10.86-13.28c-1.64-0.22-3.27-0.44-4.91-0.66
			c0.07,0.64,0,0.16,0.41,0c0.94,0.38,1.88,0.77,2.82,1.15c-0.28,0.69-0.55,1.39-0.83,2.08c-1.05-0.8-2.11-1.61-3.16-2.41
			c0.1,1.28-0.34,2.89-1.66,3.43c-0.93,0.38-1.97,1.25-1.84,2.41c0.02,0.17,0,1.08,0.1,1.18c0.02,0.02,1.07-0.67,1.49-0.36
			c0.3,0.3,0.6,0.6,0.9,0.9c-0.05-0.07-0.11-0.15-0.16-0.22c-1.35-1.87-4.74-1.42-4.66,1.26c0.05,1.83-1.25,3.22-2.45,4.46
			c-1.69,1.75-3.43,3.46-5.15,5.18c-1.03,1.04-0.84,2.47,0,3.54c0.06,0.07,0.11,0.14,0.17,0.21c-0.21-0.37-0.43-0.74-0.64-1.1
			c-0.3-1.14,0.79-1.45-0.28-0.82c-0.36,0.21-0.73,0.41-1.11,0.58c-0.74,0.34-1.53,0.6-2.33,0.79c-1.68,0.41-3.38,0.43-5.08,0.21
			c0.8,1.05,1.61,2.11,2.41,3.16c0.1-0.4,0.04-0.39-0.19,0.02c-0.2,0.41-0.56,0.56-1.07,0.45c1.72,0.44,3.75-1.21,3.08-3.08
			c0.02,0.06-0.12,0.49-0.15,0.53c-0.43,0.66-1.38,0.39-1.81-0.14c-0.37-0.47-0.35-0.83,0.24-1.21c1.22,0.5,2.45,1,3.67,1.49
			c0.14,0.64-1.25,0.76-1.11-0.12c1.61,0,3.21,0,4.82,0c-0.17-0.63,1.93-1.85,2.3-2.17c0.62-0.53,1.15-1.18,1.57-1.88
			c0.15-0.24,0.38-0.56,0.44-0.82c0.05-0.08,0.09-0.16,0.13-0.25c-0.74,0.16-0.86,0.25-0.35,0.27c-0.42-0.11-0.84-0.23-1.26-0.34
			c-0.01-0.02-0.02-0.04-0.03-0.07c-0.21-0.81-0.43-1.62-0.64-2.43c-0.25,1.18-0.49,2.36-0.74,3.54c1.64,0.22,3.27,0.44,4.91,0.66
			c0.01-0.48,0.07-0.93,0.25-1.38c0.08-0.21,0.22-0.39,0.32-0.59c0.2-0.41,0.2-0.05-0.03,0c-0.44,0-0.89,0-1.33,0
			c-0.27-0.29-0.54-0.57-0.81-0.86c0-0.44,0-0.89,0-1.33c-0.02,0.09-0.05,0.18-0.07,0.27c-0.78,2.84,3,4.19,4.57,1.93
			c0.84-1.21,1.85-2.25,2.97-3.19c-1.42-0.59-2.85-1.18-4.27-1.77c0.03,0.45,0.03,0.52,0,0.22c1.52,0.64,3.05,1.28,4.57,1.93
			c0.78-2.48,2.05-4.76,3.79-6.69c-1.39-0.37-2.79-0.74-4.18-1.1c0.38,2.17,0.17,4.34-0.46,6.44c1.64,0.22,3.27,0.44,4.91,0.66
			c0.14-1.21,0.45-2.42,0.87-3.57c0.1-0.28,0.37-0.66,0.39-0.95c0-0.04-0.3,0.18-0.33,0.06c0,0.01,0.43,0.35,0.44,0.37
			c0.18,0.27,0.18,0.49,0.19,0.86c0.02,1.2-0.53,2.42-0.96,3.52c1.52-0.2,3.05-0.4,4.57-0.6c-1.46-2.51-2.02-5.45-1.46-8.32
			c0.52-2.66-3.12-4.54-4.57-1.93c-0.22,0.4-0.45,0.8-0.67,1.2c1.55,0.42,3.11,0.84,4.66,1.26c-0.24-3.12,0.13-6.28,1.36-9.18
			c-1.44,0-2.88,0-4.32,0c0.26,0.4,0.53,0.97,0.32,1.46c1.52,0.2,3.05,0.4,4.57,0.6c-0.24-1.47,0.22-2.87,1.03-4.08
			c-1.52-0.2-3.05-0.4-4.57-0.6c0.78,2.19,0.69,4.45-0.47,6.49c1.52,0.64,3.05,1.28,4.57,1.93c0.18-1.32,0.58-2.45,1.5-3.43
			c-1.39-0.37-2.79-0.74-4.18-1.1c0.62,1.63,0.51,3.41-0.72,4.74c1.42,0.59,2.85,1.18,4.27,1.77c-0.19-1.72,0.22-3.85,1.8-4.85
			c-0.42,0.11-0.84,0.23-1.26,0.34c0.13-0.01,0.26-0.03,0.39-0.04c-0.42-0.11-0.84-0.23-1.26-0.34c-1.13-0.62-0.23-0.66-0.43-0.05
			c-0.06,0.18-0.04,0.41-0.13,0.6c0.72-0.41,1.44-0.83,2.16-1.24c-1.97-0.16-2.15-2.93-0.66-3.86c-1.01-0.13-2.02-0.26-3.03-0.39
			c-0.47-0.59-0.53-1.11-0.2-1.57c0.31-0.67,0.97-0.76,1.97-0.27c0.01-0.01,0.1,0,0.1-0.01c0.34-0.32,0.62-0.9,0.94-1.26
			c-1.42-0.59-2.85-1.18-4.27-1.77c0.12,0.9-0.01,1.64-0.86,2.11c1.25,0.72,2.51,1.44,3.76,2.16c0.02-1.72,0.53-3.21,1.49-4.64
			c-1.52-0.2-3.05-0.4-4.57-0.6c0.27,1.23,0.31,2.45,0.21,3.7c1.67,0,3.33,0,5,0c-0.04-0.89,0.04-1.63,0.3-2.48
			c-1.61-0.44-3.21-0.89-4.82-1.33c-0.13,0.91-0.26,1.81-0.38,2.72c1.64,0.22,3.27,0.44,4.91,0.66c0-1.77,1.15-2.34,2.17-3.57
			c1.44-1.72,1.22-4.17,1.34-6.28c0.25-4.57,0.51-9.14,0.76-13.71c-1.67,0-3.33,0-5,0c-0.06,2.61-0.12,5.22-0.17,7.83
			c1.55-0.42,3.11-0.84,4.66-1.26c0.3,0.82,0.09,1.42-0.64,1.79c-1.03-1.03-2.05-2.05-3.08-3.08c-0.83,2.43-1.34,4.95-1.55,7.51
			c-0.1,1.21-0.06,2.41-0.07,3.62c0,0.1-0.15,0.99-0.12,1.04c-0.2-0.27,1.16-0.32,1.37-0.07c0.24,0.59,0.49,1.18,0.73,1.77
			c0.13-1.15,0.88-2.12,1.84-2.69c-1.22-0.5-2.45-1-3.67-1.49c0.07,0.44,0.13,0.92,0.1,1.37c-0.01,0.12-0.11,0.42-0.08,0.51
			c0.07,0.21-0.05-0.07,0.24-0.18c0.21-0.08-0.12,0.06-0.18,0.07c0.72-0.07,0.71,0.19,1.12,0.6c0.35,0.35,0.15,0.2,0.17-0.24
			c0.01-0.22,0.01-0.45,0.04-0.67c0.04-0.31,0.06-0.71,0.22-0.98c0.26-0.44-0.19,0.21,0.14-0.12c0.26-0.26,0.6-0.39,0.84-0.71
			c0.25-0.33,0.38-0.68,0.51-1.07c0.22-0.64,0.37-1.32,0.49-1.98c0.47-2.59,0.41-5.1-0.03-7.69c-0.25-1.44-0.96-3.91,0.68-4.65
			c-1.22-0.5-2.45-1-3.67-1.49c0.03,0.2-0.05,0.57,0.02,0.69c-0.04,0.18,0.02,0.12,0.19-0.19c0.49-0.84,1.26-0.61,2.29,0.69
			c0.14-0.29,0.08-0.65,0.3-0.94c-1.39-0.37-2.79-0.74-4.18-1.1c-0.08-0.61,0.15-1.05,0.69-1.32c1.03,0.58,2.05,1.16,3.08,1.75
			c-0.2-0.75,0.6-1.81,1.24-1.66c-0.61-0.8-1.22-1.61-1.84-2.41c-0.03,0.48-0.28,0.58-0.52,0.57c-0.34-0.01-0.03-0.25-0.07-0.25
			c-0.59-0.24-1.18-0.49-1.77-0.73c0.05,0.05,0.32,0.31,0.28,0.38c-0.15,0.21,0.02-0.26,0.07-0.27c0.68-0.16-0.26-0.54,1.05,0
			c0.79,0.32,1.48,1.02,0.18,1.88C156.93,108.64,154.43,104.31,151.73,106.08L151.73,106.08z"/>
	</g>
</g>
<g>
	<g>
		<path d="M143.32,159.14c-0.53,1.35-1.07,2.7-1.6,4.05c1.61,0.44,3.21,0.89,4.82,1.33c0.81-3.45-2.76-6.45-6.03-5
			c-1.48,0.66-2.45,1.96-3,3.46c-0.27,0.73-0.39,1.51-0.44,2.29c-0.03,0.47-0.01,0.93,0.04,1.4c0.03,0.22,0.06,0.44,0.09,0.66
			c0.08,0.58,0.1,0.61,0.05,0.09c0.21-0.37,0.43-0.74,0.64-1.1c-0.08,0.07-0.16,0.14-0.23,0.22c0.37-0.21,0.74-0.43,1.1-0.64
			c-0.78,0.29-1.62,0.35-2.41,0.64c-0.9,0.33-1.77,0.74-2.56,1.28c-1.61,1.09-2.92,2.51-3.88,4.2c1.52,0.2,3.05,0.4,4.57,0.6
			c-0.52-1.94-0.64-3.86-0.45-5.86c-1.25,0.72-2.51,1.44-3.76,2.16c1.66,1.1,4.33,2.36,6.39,1.8c2.48-0.68,2.94-3.62,3.33-5.79
			c-1.64-0.22-3.27-0.44-4.91-0.66c0.01,0.42,0.02,0.84,0.03,1.25c0.04,1.53,1.58,2.96,3.16,2.41c2.65-0.91,4.34-3.22,4.39-6.03
			c-1.05,0.8-2.11,1.61-3.16,2.41c-0.85-0.34-0.21,0.14,0.14,0.56c0.27,0.32,0.55,0.61,0.91,0.84c0.91,0.6,2.02,0.81,3.09,0.56
			c0.97-0.23,1.85-0.85,2.5-1.59c0.72-0.82,0.99-1.81,1.56-2.71c0.42-0.68,1.14-1.01,1.72-1.54c0.71-0.66,1.23-1.48,1.63-2.36
			c0.91-2.03,1.63-4.16,2.42-6.23c-1.64-0.22-3.27-0.44-4.91-0.66c-0.35,2.89,3.44,3.89,5.2,2.08c1.57-1.61,1.7-4.25,1.31-6.32
			c-0.23-1.22-1.9-2.23-3.08-1.75c-1.51,0.62-2.71,1.65-3,3.34c-0.24,1.33,0.36,2.69,1.75,3.08c1.21,0.33,2.84-0.41,3.08-1.75
			c0.17-0.57,0.01-0.52-0.49,0.16c-1.03-0.58-2.05-1.16-3.08-1.75c0.06,0.31,0.06,0.65,0.01,0.97c-0.09,0.55-0.34,0.58,0.08,0.36
			c0.42-0.11,0.84-0.23,1.26-0.34c-0.08-0.01-0.16-0.01-0.24-0.02c0.42,0.11,0.84,0.23,1.26,0.34c-0.07-0.04-0.14-0.09-0.21-0.13
			c0.3,0.3,0.6,0.6,0.9,0.9c-0.04-0.07-0.08-0.13-0.12-0.2c0.11,0.42,0.23,0.84,0.34,1.26c0.01-0.08,0.02-0.15,0.03-0.23
			c0.15-1.22-1.06-2.32-2.17-2.46c-1.31-0.16-2.29,0.6-2.74,1.79c-0.6,1.58-1.19,3.18-1.81,4.75c-0.21,0.53-0.42,1.1-0.81,1.52
			c-0.46,0.48-1.09,0.79-1.57,1.26c-0.56,0.56-0.99,1.23-1.34,1.94c-0.09,0.19-0.81,1.39-0.77,1.47c-0.08-0.14,1.01,0.16,1.02,0.15
			c0.02-0.02-0.67-0.88-0.55-0.74c-0.56-0.67-1.18-1.03-1.98-1.35c-1.56-0.62-3.14,0.94-3.16,2.41c-0.01,0.5-0.2,1.03-0.72,1.21
			c1.05,0.8,2.11,1.61,3.16,2.41c-0.01-0.42-0.02-0.84-0.03-1.25c-0.07-2.7-4.39-3.55-4.91-0.66c-0.11,0.59-0.23,1.17-0.37,1.75
			c-0.07,0.29-0.15,0.58-0.24,0.86c-0.23,0.6-0.17,0.57,0.18-0.07c0.42-0.11,0.84-0.23,1.26-0.34c-1.14,0.08-2.29-0.6-3.2-1.2
			c-1.72-1.14-3.6,0.41-3.76,2.16c-0.23,2.42,0,4.84,0.63,7.19c0.55,2.06,3.51,2.47,4.57,0.6c0.67-1.17,1.54-2.13,2.72-2.8
			c1.33-0.77,3.1-0.63,4.25-1.67c1.65-1.49,0.61-3.11,0.9-4.94c0.02-0.1,0.37-1.01,0.37-1c-0.32-0.39-1.02,0.25-0.74-0.94
			c-0.75,3.2,3.66,4.27,4.82,1.33c0.53-1.35,1.07-2.7,1.6-4.05c0.5-1.26-0.54-2.74-1.75-3.08
			C144.98,157,143.82,157.88,143.32,159.14L143.32,159.14z"/>
	</g>
</g>
</svg>
